<svg xmlns="http://www.w3.org/2000/svg" xmlns:xlink="http://www.w3.org/1999/xlink" xmlns:s="https://github.com/nturley/netlistsvg" width="902" height="539.5">
  <style>svg {
    stroke:#000;
    fill:none;
  }
  text {
    fill:#000;
    stroke:none;
    font-size:10px;
    font-weight: bold;
    font-family: "Courier New", monospace;
  }
  .nodelabel {
    text-anchor: middle;
  }
  .inputPortLabel {
    text-anchor: end;
  }
  .splitjoinBody {
    fill:#000;
  }</style>
  <g s:type="add" transform="translate(647,184.5)" s:width="25" s:height="25" id="cell_$add$/home/jo/kiro/RV8/rv8_cpu.v:102$35">
    <s:alias val="$add"/>
    <circle r="12.5" cx="12.5" cy="12.5" class="cell_$add$/home/jo/kiro/RV8/rv8_cpu.v:102$35"/>
    <line x1="7.5" x2="17.5" y1="12.5" y2="12.5" class="cell_$add$/home/jo/kiro/RV8/rv8_cpu.v:102$35"/>
    <line x1="12.5" x2="12.5" y1="7.5" y2="17.5" class="cell_$add$/home/jo/kiro/RV8/rv8_cpu.v:102$35"/>
    <g s:x="3" s:y="5" s:pid="A"/>
    <g s:x="3" s:y="20" s:pid="B"/>
    <g s:x="25" s:y="12.5" s:pid="Y"/>
  </g>
  <g s:type="add" transform="translate(707,234.5)" s:width="25" s:height="25" id="cell_$add$/home/jo/kiro/RV8/rv8_cpu.v:92$32">
    <s:alias val="$add"/>
    <circle r="12.5" cx="12.5" cy="12.5" class="cell_$add$/home/jo/kiro/RV8/rv8_cpu.v:92$32"/>
    <line x1="7.5" x2="17.5" y1="12.5" y2="12.5" class="cell_$add$/home/jo/kiro/RV8/rv8_cpu.v:92$32"/>
    <line x1="12.5" x2="12.5" y1="7.5" y2="17.5" class="cell_$add$/home/jo/kiro/RV8/rv8_cpu.v:92$32"/>
    <g s:x="3" s:y="5" s:pid="A"/>
    <g s:x="3" s:y="20" s:pid="B"/>
    <g s:x="25" s:y="12.5" s:pid="Y"/>
  </g>
  <g s:type="generic" transform="translate(462,66.5)" s:width="30" s:height="40" id="cell_$auto$ff.cc:266:slice$141">
    <text x="15" y="-4" class="nodelabel cell_$auto$ff.cc:266:slice$141" s:attribute="ref">$adffe</text>
    <rect width="30" height="80" s:generic="body" class="cell_$auto$ff.cc:266:slice$141"/>
    <g transform="translate(0,10)" s:x="0" s:y="10" s:pid="in0" id="port_$auto$ff.cc:266:slice$141~ARST">
      <text x="-3" y="-4" class="inputPortLabel cell_$auto$ff.cc:266:slice$141">ARST</text>
    </g>
    <g transform="translate(0,30)" s:x="0" s:y="10" s:pid="in0" id="port_$auto$ff.cc:266:slice$141~CLK">
      <text x="-3" y="-4" class="inputPortLabel cell_$auto$ff.cc:266:slice$141">CLK</text>
    </g>
    <g transform="translate(0,50)" s:x="0" s:y="10" s:pid="in0" id="port_$auto$ff.cc:266:slice$141~D">
      <text x="-3" y="-4" class="inputPortLabel cell_$auto$ff.cc:266:slice$141">D</text>
    </g>
    <g transform="translate(0,70)" s:x="0" s:y="10" s:pid="in0" id="port_$auto$ff.cc:266:slice$141~EN">
      <text x="-3" y="-4" class="inputPortLabel cell_$auto$ff.cc:266:slice$141">EN</text>
    </g>
    <g transform="translate(30,10)" s:x="30" s:y="10" s:pid="out0" id="port_$auto$ff.cc:266:slice$141~Q">
      <text x="5" y="-4" style="fill:#000; stroke:none" class="cell_$auto$ff.cc:266:slice$141">Q</text>
    </g>
  </g>
  <g s:type="generic" transform="translate(138,152)" s:width="30" s:height="40" id="cell_$auto$opt_dff.cc:195:make_patterns_logic$143">
    <text x="15" y="-4" class="nodelabel cell_$auto$opt_dff.cc:195:make_patterns_logic$143" s:attribute="ref">$reduce_bool</text>
    <rect width="30" height="20" s:generic="body" class="cell_$auto$opt_dff.cc:195:make_patterns_logic$143"/>
    <g transform="translate(0,10)" s:x="0" s:y="10" s:pid="in0" id="port_$auto$opt_dff.cc:195:make_patterns_logic$143~A">
      <text x="-3" y="-4" class="inputPortLabel cell_$auto$opt_dff.cc:195:make_patterns_logic$143">A</text>
    </g>
    <g transform="translate(30,10)" s:x="30" s:y="10" s:pid="out0" id="port_$auto$opt_dff.cc:195:make_patterns_logic$143~Y">
      <text x="5" y="-4" style="fill:#000; stroke:none" class="cell_$auto$opt_dff.cc:195:make_patterns_logic$143">Y</text>
    </g>
  </g>
  <g s:type="mux" transform="translate(709.5,167)" s:width="20" s:height="40" id="cell_$procmux$132">
    <s:alias val="$pmux"/>
    <s:alias val="$mux"/>
    <s:alias val="$_MUX_"/>
    <path d="M0,0 L20,10 L20,30 L0,40 Z" class="cell_$procmux$132"/>
    <g s:x="0" s:y="10" s:pid="A"/>
    <g s:x="0" s:y="30" s:pid="B"/>
    <g s:x="10" s:y="35" s:pid="S"/>
    <g s:x="20" s:y="20" s:pid="Y"/>
  </g>
  <g s:type="mux" transform="translate(776.3333333333334,177)" s:width="20" s:height="40" id="cell_$procmux$135">
    <s:alias val="$pmux"/>
    <s:alias val="$mux"/>
    <s:alias val="$_MUX_"/>
    <path d="M0,0 L20,10 L20,30 L0,40 Z" class="cell_$procmux$135"/>
    <g s:x="0" s:y="10" s:pid="A"/>
    <g s:x="0" s:y="30" s:pid="B"/>
    <g s:x="10" s:y="35" s:pid="S"/>
    <g s:x="20" s:y="20" s:pid="Y"/>
  </g>
  <g s:type="mux" transform="translate(850,187)" s:width="20" s:height="40" id="cell_$procmux$138">
    <s:alias val="$pmux"/>
    <s:alias val="$mux"/>
    <s:alias val="$_MUX_"/>
    <path d="M0,0 L20,10 L20,30 L0,40 Z" class="cell_$procmux$138"/>
    <g s:x="0" s:y="10" s:pid="A"/>
    <g s:x="0" s:y="30" s:pid="B"/>
    <g s:x="10" s:y="35" s:pid="S"/>
    <g s:x="20" s:y="20" s:pid="Y"/>
  </g>
  <g s:type="inputExt" transform="translate(138,87)" s:width="30" s:height="20" id="cell_clk">
    <text x="15" y="-4" class="nodelabel cell_clk" s:attribute="ref">clk</text>
    <s:alias val="$_inputExt_"/>
    <path d="M0,0 L0,20 L15,20 L30,10 L15,0 Z" class="cell_clk"/>
    <g s:x="28" s:y="10" s:pid="Y"/>
  </g>
  <g s:type="inputExt" transform="translate(138,22)" s:width="30" s:height="20" id="cell_rst_n">
    <text x="15" y="-4" class="nodelabel cell_rst_n" s:attribute="ref">rst_n</text>
    <s:alias val="$_inputExt_"/>
    <path d="M0,0 L0,20 L15,20 L30,10 L15,0 Z" class="cell_rst_n"/>
    <g s:x="28" s:y="10" s:pid="Y"/>
  </g>
  <g s:type="inputExt" transform="translate(12,214.5)" s:width="30" s:height="20" id="cell_inc">
    <text x="15" y="-4" class="nodelabel cell_inc" s:attribute="ref">inc</text>
    <s:alias val="$_inputExt_"/>
    <path d="M0,0 L0,20 L15,20 L30,10 L15,0 Z" class="cell_inc"/>
    <g s:x="28" s:y="10" s:pid="Y"/>
  </g>
  <g s:type="inputExt" transform="translate(12,507.5)" s:width="30" s:height="20" id="cell_load">
    <text x="15" y="-4" class="nodelabel cell_load" s:attribute="ref">load</text>
    <s:alias val="$_inputExt_"/>
    <path d="M0,0 L0,20 L15,20 L30,10 L15,0 Z" class="cell_load"/>
    <g s:x="28" s:y="10" s:pid="Y"/>
  </g>
  <g s:type="inputExt" transform="translate(12,279.5)" s:width="30" s:height="20" id="cell_branch">
    <text x="15" y="-4" class="nodelabel cell_branch" s:attribute="ref">branch</text>
    <s:alias val="$_inputExt_"/>
    <path d="M0,0 L0,20 L15,20 L30,10 L15,0 Z" class="cell_branch"/>
    <g s:x="28" s:y="10" s:pid="Y"/>
  </g>
  <g s:type="inputExt" transform="translate(767,487.5)" s:width="30" s:height="20" id="cell_load_val">
    <text x="15" y="-4" class="nodelabel cell_load_val" s:attribute="ref">load_val</text>
    <s:alias val="$_inputExt_"/>
    <path d="M0,0 L0,20 L15,20 L30,10 L15,0 Z" class="cell_load_val"/>
    <g s:x="28" s:y="10" s:pid="Y"/>
  </g>
  <g s:type="inputExt" transform="translate(138,245.5)" s:width="30" s:height="20" id="cell_offset">
    <text x="15" y="-4" class="nodelabel cell_offset" s:attribute="ref">offset</text>
    <s:alias val="$_inputExt_"/>
    <path d="M0,0 L0,20 L15,20 L30,10 L15,0 Z" class="cell_offset"/>
    <g s:x="28" s:y="10" s:pid="Y"/>
  </g>
  <g s:type="outputExt" transform="translate(850,67)" s:width="30" s:height="20" id="cell_pc">
    <text x="15" y="-4" class="nodelabel cell_pc" s:attribute="ref">pc</text>
    <s:alias val="$_outputExt_"/>
    <path d="M30,0 L30,20 L15,20 L0,10 L15,0 Z" class="cell_pc"/>
    <g s:x="0" s:y="10" s:pid="A"/>
  </g>
  <g s:type="constant" transform="translate(462,194.5)" s:width="30" s:height="20" id="cell_0000000000000001">
    <text x="15" y="-4" class="nodelabel cell_0000000000000001" s:attribute="ref">0x1</text>
    <s:alias val="$_constant_"/>
    <rect width="30" height="20" class="cell_0000000000000001"/>
    <g s:x="30" s:y="10" s:pid="Y"/>
  </g>
  <g s:type="join" transform="translate(649.625,267.5)" s:width="4" s:height="40" id="cell_$join$,23,24,25,26,27,28,29,30,30,30,30,30,30,30,30,30,">
    <rect width="5" height="180" class="splitjoinBody" s:generic="body"/>
    <s:alias val="$_join_"/>
    <g s:x="5" s:y="20" s:pid="out"/>
    <g transform="translate(0,10)" s:x="0" s:y="10" s:pid="in0">
      <text x="-3" y="-4" class="inputPortLabel">0:7</text>
    </g>
    <g transform="translate(0,30)" s:x="0" s:y="10" s:pid="in0">
      <text x="-3" y="-4" class="inputPortLabel">8</text>
    </g>
    <g transform="translate(0,50)" s:x="0" s:y="10" s:pid="in0">
      <text x="-3" y="-4" class="inputPortLabel">9</text>
    </g>
    <g transform="translate(0,70)" s:x="0" s:y="10" s:pid="in0">
      <text x="-3" y="-4" class="inputPortLabel">10</text>
    </g>
    <g transform="translate(0,90)" s:x="0" s:y="10" s:pid="in0">
      <text x="-3" y="-4" class="inputPortLabel">11</text>
    </g>
    <g transform="translate(0,110)" s:x="0" s:y="10" s:pid="in0">
      <text x="-3" y="-4" class="inputPortLabel">12</text>
    </g>
    <g transform="translate(0,130)" s:x="0" s:y="10" s:pid="in0">
      <text x="-3" y="-4" class="inputPortLabel">13</text>
    </g>
    <g transform="translate(0,150)" s:x="0" s:y="10" s:pid="in0">
      <text x="-3" y="-4" class="inputPortLabel">14</text>
    </g>
    <g transform="translate(0,170)" s:x="0" s:y="10" s:pid="in0">
      <text x="-3" y="-4" class="inputPortLabel">15</text>
    </g>
  </g>
  <g s:type="join" transform="translate(90,239)" s:width="4" s:height="40" id="cell_$join$,4,5,6,">
    <rect width="5" height="60" class="splitjoinBody" s:generic="body"/>
    <s:alias val="$_join_"/>
    <g s:x="5" s:y="20" s:pid="out"/>
    <g transform="translate(0,10)" s:x="0" s:y="10" s:pid="in0">
      <text x="-3" y="-4" class="inputPortLabel">0</text>
    </g>
    <g transform="translate(0,30)" s:x="0" s:y="10" s:pid="in0">
      <text x="-3" y="-4" class="inputPortLabel">1</text>
    </g>
    <g transform="translate(0,50)" s:x="0" s:y="10" s:pid="in0">
      <text x="-3" y="-4" class="inputPortLabel">2</text>
    </g>
  </g>
  <g s:type="split" transform="translate(487,287.5)" s:width="5" s:height="40" id="cell_$split$,23,24,25,26,27,28,29,30,">
    <rect width="5" height="20" class="splitjoinBody" s:generic="body"/>
    <s:alias val="$_split_"/>
    <g s:x="0" s:y="20" s:pid="in"/>
    <g transform="translate(4,10)" s:x="4" s:y="10" s:pid="out0">
      <text x="5" y="-4">7</text>
    </g>
  </g>
  <line x1="493" x2="622" y1="77" y2="77" class="net_31,32,33,34,35,36,37,38,39,40,41,42,43,44,45,46"/>
  <line x1="622" x2="622" y1="77" y2="189.5" class="net_31,32,33,34,35,36,37,38,39,40,41,42,43,44,45,46"/>
  <circle cx="622" cy="77" r="2" style="fill:#000" class="net_31,32,33,34,35,36,37,38,39,40,41,42,43,44,45,46"/>
  <circle cx="622" cy="189.5" r="2" style="fill:#000" class="net_31,32,33,34,35,36,37,38,39,40,41,42,43,44,45,46"/>
  <line x1="622" x2="650" y1="189.5" y2="189.5" class="net_31,32,33,34,35,36,37,38,39,40,41,42,43,44,45,46"/>
  <line x1="493" x2="622" y1="77" y2="77" class="net_31,32,33,34,35,36,37,38,39,40,41,42,43,44,45,46"/>
  <line x1="622" x2="622" y1="77" y2="239.5" class="net_31,32,33,34,35,36,37,38,39,40,41,42,43,44,45,46"/>
  <line x1="622" x2="710" y1="239.5" y2="239.5" class="net_31,32,33,34,35,36,37,38,39,40,41,42,43,44,45,46"/>
  <line x1="493" x2="850" y1="77" y2="77" class="net_31,32,33,34,35,36,37,38,39,40,41,42,43,44,45,46"/>
  <line x1="492" x2="650" y1="204.5" y2="204.5" class="net_128,129,130,131,132,133,134,135,136,137,138,139,140,141,142,143"/>
  <line x1="655.625" x2="682" y1="288" y2="288" class="net_23,24,25,26,27,28,29,30,30,30,30,30,30,30,30,30"/>
  <line x1="682" x2="682" y1="288" y2="254.5" class="net_23,24,25,26,27,28,29,30,30,30,30,30,30,30,30,30"/>
  <line x1="682" x2="710" y1="254.5" y2="254.5" class="net_23,24,25,26,27,28,29,30,30,30,30,30,30,30,30,30"/>
  <line x1="166" x2="422" y1="32" y2="32" class="net_3"/>
  <line x1="422" x2="422" y1="32" y2="77" class="net_3"/>
  <line x1="422" x2="462" y1="77" y2="77" class="net_3"/>
  <line x1="166" x2="462" y1="97" y2="97" class="net_2"/>
  <line x1="870" x2="890" y1="207" y2="207" class="net_79,80,81,82,83,84,85,86,87,88,89,90,91,92,93,94"/>
  <line x1="890" x2="890" y1="207" y2="46.5" class="net_79,80,81,82,83,84,85,86,87,88,89,90,91,92,93,94"/>
  <line x1="890" x2="412" y1="46.5" y2="46.5" class="net_79,80,81,82,83,84,85,86,87,88,89,90,91,92,93,94"/>
  <line x1="412" x2="412" y1="46.5" y2="117" class="net_79,80,81,82,83,84,85,86,87,88,89,90,91,92,93,94"/>
  <line x1="412" x2="462" y1="117" y2="117" class="net_79,80,81,82,83,84,85,86,87,88,89,90,91,92,93,94"/>
  <line x1="169" x2="412" y1="162.5" y2="162.5" class="net_95"/>
  <line x1="412" x2="412" y1="162.5" y2="137" class="net_95"/>
  <line x1="412" x2="462" y1="137" y2="137" class="net_95"/>
  <line x1="96" x2="106" y1="259.5" y2="259.5" class="net_4,5,6"/>
  <line x1="106" x2="106" y1="259.5" y2="162.5" class="net_4,5,6"/>
  <line x1="106" x2="138" y1="162.5" y2="162.5" class="net_4,5,6"/>
  <line x1="672" x2="709.5" y1="197" y2="197" class="net_47,48,49,50,51,52,53,54,55,56,57,58,59,60,61,62"/>
  <line x1="40" x2="719.5" y1="224.5" y2="224.5" class="net_4"/>
  <line x1="719.5" x2="719.5" y1="224.5" y2="202" class="net_4"/>
  <line x1="40" x2="58" y1="224.5" y2="224.5" class="net_4"/>
  <line x1="58" x2="58" y1="224.5" y2="249.5" class="net_4"/>
  <circle cx="58" cy="224.5" r="2" style="fill:#000" class="net_4"/>
  <line x1="58" x2="90" y1="249.5" y2="249.5" class="net_4"/>
  <line x1="729.5" x2="776.3333333333334" y1="187" y2="187" class="net_96,97,98,99,100,101,102,103,104,105,106,107,108,109,110,111"/>
  <line x1="732" x2="742" y1="247" y2="247" class="net_63,64,65,66,67,68,69,70,71,72,73,74,75,76,77,78"/>
  <line x1="742" x2="742" y1="247" y2="207" class="net_63,64,65,66,67,68,69,70,71,72,73,74,75,76,77,78"/>
  <line x1="742" x2="776.3333333333334" y1="207" y2="207" class="net_63,64,65,66,67,68,69,70,71,72,73,74,75,76,77,78"/>
  <line x1="40" x2="68" y1="289.5" y2="289.5" class="net_6"/>
  <line x1="68" x2="68" y1="289.5" y2="467.5" class="net_6"/>
  <line x1="68" x2="786.3333333333334" y1="467.5" y2="467.5" class="net_6"/>
  <circle cx="68" cy="289.5" r="2" style="fill:#000" class="net_6"/>
  <line x1="786.3333333333334" x2="786.3333333333334" y1="467.5" y2="212" class="net_6"/>
  <line x1="40" x2="90" y1="289.5" y2="289.5" class="net_6"/>
  <line x1="796.3333333333334" x2="850" y1="197" y2="197" class="net_112,113,114,115,116,117,118,119,120,121,122,123,124,125,126,127"/>
  <line x1="795" x2="825" y1="497.5" y2="497.5" class="net_7,8,9,10,11,12,13,14,15,16,17,18,19,20,21,22"/>
  <line x1="825" x2="825" y1="497.5" y2="217" class="net_7,8,9,10,11,12,13,14,15,16,17,18,19,20,21,22"/>
  <line x1="825" x2="850" y1="217" y2="217" class="net_7,8,9,10,11,12,13,14,15,16,17,18,19,20,21,22"/>
  <line x1="40" x2="860" y1="517.5" y2="517.5" class="net_5"/>
  <line x1="860" x2="860" y1="517.5" y2="222" class="net_5"/>
  <line x1="40" x2="58" y1="517.5" y2="517.5" class="net_5"/>
  <line x1="58" x2="58" y1="517.5" y2="269.5" class="net_5"/>
  <circle cx="58" cy="517.5" r="2" style="fill:#000" class="net_5"/>
  <line x1="58" x2="90" y1="269.5" y2="269.5" class="net_5"/>
  <line x1="166" x2="650.125" y1="255.5" y2="255.5" class="net_23,24,25,26,27,28,29,30"/>
  <line x1="650.125" x2="650.125" y1="255.5" y2="277.5" class="net_23,24,25,26,27,28,29,30"/>
  <line x1="166" x2="412" y1="255.5" y2="255.5" class="net_23,24,25,26,27,28,29,30"/>
  <line x1="412" x2="412" y1="255.5" y2="320.5" class="net_23,24,25,26,27,28,29,30"/>
  <line x1="412" x2="487.5" y1="320.5" y2="320.5" class="net_23,24,25,26,27,28,29,30"/>
  <circle cx="412" cy="255.5" r="2" style="fill:#000" class="net_23,24,25,26,27,28,29,30"/>
  <line x1="487.5" x2="487.5" y1="320.5" y2="308.5" class="net_23,24,25,26,27,28,29,30"/>
  <line x1="492" x2="649.625" y1="298" y2="298" class="net_30"/>
  <line x1="492" x2="622" y1="298" y2="298" class="net_30"/>
  <line x1="622" x2="622" y1="298" y2="318" class="net_30"/>
  <circle cx="622" cy="298" r="2" style="fill:#000" class="net_30"/>
  <circle cx="622" cy="318" r="2" style="fill:#000" class="net_30"/>
  <line x1="622" x2="649.625" y1="318" y2="318" class="net_30"/>
  <line x1="492" x2="622" y1="298" y2="298" class="net_30"/>
  <line x1="622" x2="622" y1="298" y2="338" class="net_30"/>
  <circle cx="622" cy="338" r="2" style="fill:#000" class="net_30"/>
  <line x1="622" x2="649.625" y1="338" y2="338" class="net_30"/>
  <line x1="492" x2="622" y1="298" y2="298" class="net_30"/>
  <line x1="622" x2="622" y1="298" y2="358" class="net_30"/>
  <circle cx="622" cy="358" r="2" style="fill:#000" class="net_30"/>
  <line x1="622" x2="649.625" y1="358" y2="358" class="net_30"/>
  <line x1="492" x2="622" y1="298" y2="298" class="net_30"/>
  <line x1="622" x2="622" y1="298" y2="378" class="net_30"/>
  <circle cx="622" cy="378" r="2" style="fill:#000" class="net_30"/>
  <line x1="622" x2="649.625" y1="378" y2="378" class="net_30"/>
  <line x1="492" x2="622" y1="298" y2="298" class="net_30"/>
  <line x1="622" x2="622" y1="298" y2="398" class="net_30"/>
  <circle cx="622" cy="398" r="2" style="fill:#000" class="net_30"/>
  <line x1="622" x2="649.625" y1="398" y2="398" class="net_30"/>
  <line x1="492" x2="622" y1="298" y2="298" class="net_30"/>
  <line x1="622" x2="622" y1="298" y2="418" class="net_30"/>
  <circle cx="622" cy="418" r="2" style="fill:#000" class="net_30"/>
  <line x1="622" x2="649.625" y1="418" y2="418" class="net_30"/>
  <line x1="492" x2="622" y1="298" y2="298" class="net_30"/>
  <line x1="622" x2="622" y1="298" y2="457.5" class="net_30"/>
  <line x1="622" x2="650.125" y1="457.5" y2="457.5" class="net_30"/>
  <line x1="650.125" x2="650.125" y1="457.5" y2="438.5" class="net_30"/>
</svg>
