<?xml version="1.0" encoding="UTF-8" standalone="no"?>
<!DOCTYPE svg PUBLIC "-//W3C//DTD SVG 1.1//EN"
 "http://www.w3.org/Graphics/SVG/1.1/DTD/svg11.dtd">
<!-- Generated by graphviz version 2.43.0 (0)
 -->
<!-- Title: rv8_pc Pages: 1 -->
<svg width="1571pt" height="402pt"
 viewBox="0.00 0.00 1570.94 401.63" xmlns="http://www.w3.org/2000/svg" xmlns:xlink="http://www.w3.org/1999/xlink">
<g id="graph0" class="graph" transform="scale(1 1) rotate(0) translate(4 397.63)">
<title>rv8_pc</title>
<polygon fill="white" stroke="transparent" points="-4,4 -4,-397.63 1566.94,-397.63 1566.94,4 -4,4"/>
<text text-anchor="middle" x="781.47" y="-7.8" font-family="Times,serif" font-size="14.00">rv8_pc</text>
<!-- n6 -->
<g id="node1" class="node">
<title>n6</title>
<polygon fill="none" stroke="black" points="92.79,-293.79 92.79,-308.7 65.63,-319.24 27.23,-319.24 0.07,-308.7 0.07,-293.79 27.23,-283.24 65.63,-283.24 92.79,-293.79"/>
<text text-anchor="middle" x="46.43" y="-297.54" font-family="Times,serif" font-size="14.00">branch</text>
</g>
<!-- x2 -->
<g id="node16" class="node">
<title>x2</title>
<path fill="none" stroke="black" d="M140.86,-97.74C140.86,-97.74 191.86,-97.74 191.86,-97.74 197.86,-97.74 203.86,-103.74 203.86,-109.74 203.86,-109.74 203.86,-154.74 203.86,-154.74 203.86,-160.74 197.86,-166.74 191.86,-166.74 191.86,-166.74 140.86,-166.74 140.86,-166.74 134.86,-166.74 128.86,-160.74 128.86,-154.74 128.86,-154.74 128.86,-109.74 128.86,-109.74 128.86,-103.74 134.86,-97.74 140.86,-97.74"/>
<text text-anchor="middle" x="166.36" y="-151.54" font-family="Times,serif" font-size="14.00">0:0 &#45; 2:2</text>
<polyline fill="none" stroke="black" points="128.86,-143.74 203.86,-143.74 "/>
<text text-anchor="middle" x="166.36" y="-128.54" font-family="Times,serif" font-size="14.00">0:0 &#45; 1:1</text>
<polyline fill="none" stroke="black" points="128.86,-120.74 203.86,-120.74 "/>
<text text-anchor="middle" x="166.36" y="-105.54" font-family="Times,serif" font-size="14.00">0:0 &#45; 0:0</text>
</g>
<!-- n6&#45;&gt;x2 -->
<g id="edge18" class="edge">
<title>n6:e&#45;&gt;x2:w</title>
<path fill="none" stroke="black" d="M92.86,-301.24C155.78,-301.24 72.91,-171.85 118.74,-156.69"/>
<polygon fill="black" stroke="black" points="119.46,-160.12 128.86,-155.24 118.47,-153.19 119.46,-160.12"/>
</g>
<!-- c29 -->
<g id="node19" class="node">
<title>c29</title>
<polygon fill="none" stroke="black" points="1285.52,-193.74 1285.52,-262.74 1400.52,-262.74 1400.52,-193.74 1285.52,-193.74"/>
<text text-anchor="middle" x="1299.02" y="-247.54" font-family="Times,serif" font-size="14.00">A</text>
<polyline fill="none" stroke="black" points="1285.52,-239.74 1312.52,-239.74 "/>
<text text-anchor="middle" x="1299.02" y="-224.54" font-family="Times,serif" font-size="14.00">B</text>
<polyline fill="none" stroke="black" points="1285.52,-216.74 1312.52,-216.74 "/>
<text text-anchor="middle" x="1299.02" y="-201.54" font-family="Times,serif" font-size="14.00">S</text>
<polyline fill="none" stroke="black" points="1312.52,-193.74 1312.52,-262.74 "/>
<text text-anchor="middle" x="1343.52" y="-232.04" font-family="Times,serif" font-size="14.00">$2521</text>
<text text-anchor="middle" x="1343.52" y="-217.04" font-family="Times,serif" font-size="14.00">$mux</text>
<polyline fill="none" stroke="black" points="1374.52,-193.74 1374.52,-262.74 "/>
<text text-anchor="middle" x="1387.52" y="-224.54" font-family="Times,serif" font-size="14.00">Y</text>
</g>
<!-- n6&#45;&gt;c29 -->
<g id="edge17" class="edge">
<title>n6:e&#45;&gt;c29:w</title>
<path fill="none" stroke="black" d="M92.86,-301.24C201.76,-301.24 211.46,-392.24 320.36,-392.24 320.36,-392.24 320.36,-392.24 946.94,-392.24 1085.71,-392.24 1148.16,-410.02 1249.52,-315.24 1284.16,-282.85 1241.81,-216.7 1275.29,-206.56"/>
<polygon fill="black" stroke="black" points="1276.05,-209.99 1285.52,-205.24 1275.16,-203.05 1276.05,-209.99"/>
</g>
<!-- n7 -->
<g id="node2" class="node">
<title>n7</title>
<polygon fill="none" stroke="black" points="1141.98,-202.24 1034.4,-184.24 1141.98,-166.24 1249.56,-184.24 1141.98,-202.24"/>
<text text-anchor="middle" x="1141.98" y="-180.54" font-family="Times,serif" font-size="14.00">branch_target</text>
</g>
<!-- n7&#45;&gt;c29 -->
<g id="edge20" class="edge">
<title>n7:e&#45;&gt;c29:w</title>
<path fill="none" stroke="black" stroke-width="3" d="M1249.52,-184.24C1270.64,-184.24 1263.95,-214.99 1275.95,-225.08"/>
<polygon fill="black" stroke="black" stroke-width="3" points="1274.93,-228.43 1285.52,-228.24 1277.13,-221.78 1274.93,-228.43"/>
</g>
<!-- n8 -->
<g id="node3" class="node">
<title>n8</title>
<polygon fill="none" stroke="black" points="348.36,-126.79 348.36,-141.7 332.54,-152.24 310.18,-152.24 294.36,-141.7 294.36,-126.79 310.18,-116.24 332.54,-116.24 348.36,-126.79"/>
<text text-anchor="middle" x="321.36" y="-130.54" font-family="Times,serif" font-size="14.00">clk</text>
</g>
<!-- c25 -->
<g id="node14" class="node">
<title>c25</title>
<polygon fill="none" stroke="black" points="438.86,-107.24 438.86,-199.24 584.86,-199.24 584.86,-107.24 438.86,-107.24"/>
<text text-anchor="middle" x="466.86" y="-184.04" font-family="Times,serif" font-size="14.00">ARST</text>
<polyline fill="none" stroke="black" points="438.86,-176.24 494.86,-176.24 "/>
<text text-anchor="middle" x="466.86" y="-161.04" font-family="Times,serif" font-size="14.00">CLK</text>
<polyline fill="none" stroke="black" points="438.86,-153.24 494.86,-153.24 "/>
<text text-anchor="middle" x="466.86" y="-138.04" font-family="Times,serif" font-size="14.00">D</text>
<polyline fill="none" stroke="black" points="438.86,-130.24 494.86,-130.24 "/>
<text text-anchor="middle" x="466.86" y="-115.04" font-family="Times,serif" font-size="14.00">EN</text>
<polyline fill="none" stroke="black" points="494.86,-107.24 494.86,-199.24 "/>
<text text-anchor="middle" x="525.86" y="-157.04" font-family="Times,serif" font-size="14.00">$2684</text>
<text text-anchor="middle" x="525.86" y="-142.04" font-family="Times,serif" font-size="14.00">$adffe</text>
<polyline fill="none" stroke="black" points="556.86,-107.24 556.86,-199.24 "/>
<text text-anchor="middle" x="570.86" y="-149.54" font-family="Times,serif" font-size="14.00">Q</text>
</g>
<!-- n8&#45;&gt;c25 -->
<g id="edge21" class="edge">
<title>n8:e&#45;&gt;c25:w</title>
<path fill="none" stroke="black" d="M349.36,-134.24C387.84,-134.24 395.58,-160.14 428.78,-164.59"/>
<polygon fill="black" stroke="black" points="428.66,-168.09 438.86,-165.24 429.11,-161.11 428.66,-168.09"/>
</g>
<!-- n9 -->
<g id="node4" class="node">
<title>n9</title>
<polygon fill="none" stroke="black" points="73.43,-144.79 73.43,-159.7 57.61,-170.24 35.25,-170.24 19.43,-159.7 19.43,-144.79 35.25,-134.24 57.61,-134.24 73.43,-144.79"/>
<text text-anchor="middle" x="46.43" y="-148.54" font-family="Times,serif" font-size="14.00">inc</text>
</g>
<!-- n9&#45;&gt;x2 -->
<g id="edge23" class="edge">
<title>n9:e&#45;&gt;x2:w</title>
<path fill="none" stroke="black" d="M74.43,-152.24C101.41,-152.24 99.24,-119.32 118.94,-111.09"/>
<polygon fill="black" stroke="black" points="119.67,-114.51 128.86,-109.24 118.39,-107.63 119.67,-114.51"/>
</g>
<!-- c28 -->
<g id="node18" class="node">
<title>c28</title>
<polygon fill="none" stroke="black" points="1084.48,-236.74 1084.48,-305.74 1199.48,-305.74 1199.48,-236.74 1084.48,-236.74"/>
<text text-anchor="middle" x="1097.98" y="-290.54" font-family="Times,serif" font-size="14.00">A</text>
<polyline fill="none" stroke="black" points="1084.48,-282.74 1111.48,-282.74 "/>
<text text-anchor="middle" x="1097.98" y="-267.54" font-family="Times,serif" font-size="14.00">B</text>
<polyline fill="none" stroke="black" points="1084.48,-259.74 1111.48,-259.74 "/>
<text text-anchor="middle" x="1097.98" y="-244.54" font-family="Times,serif" font-size="14.00">S</text>
<polyline fill="none" stroke="black" points="1111.48,-236.74 1111.48,-305.74 "/>
<text text-anchor="middle" x="1142.48" y="-275.04" font-family="Times,serif" font-size="14.00">$2518</text>
<text text-anchor="middle" x="1142.48" y="-260.04" font-family="Times,serif" font-size="14.00">$mux</text>
<polyline fill="none" stroke="black" points="1173.48,-236.74 1173.48,-305.74 "/>
<text text-anchor="middle" x="1186.48" y="-267.54" font-family="Times,serif" font-size="14.00">Y</text>
</g>
<!-- n9&#45;&gt;c28 -->
<g id="edge22" class="edge">
<title>n9:e&#45;&gt;c28:w</title>
<path fill="none" stroke="black" d="M74.43,-152.24C100.87,-152.24 104.28,-166.52 128.86,-176.24 211.56,-208.94 231.43,-234.24 320.36,-234.24 320.36,-234.24 320.36,-234.24 740.15,-234.24 889.22,-234.24 928.73,-247.62 1072.88,-248.22"/>
<polygon fill="black" stroke="black" points="1072.97,-251.72 1082.98,-248.24 1072.99,-244.72 1072.97,-251.72"/>
</g>
<!-- n10 -->
<g id="node5" class="node">
<title>n10</title>
<polygon fill="none" stroke="black" points="79.56,-55.79 79.56,-70.7 60.15,-81.24 32.71,-81.24 13.3,-70.7 13.3,-55.79 32.71,-45.24 60.15,-45.24 79.56,-55.79"/>
<text text-anchor="middle" x="46.43" y="-59.54" font-family="Times,serif" font-size="14.00">load</text>
</g>
<!-- n10&#45;&gt;x2 -->
<g id="edge5" class="edge">
<title>n10:e&#45;&gt;x2:w</title>
<path fill="none" stroke="black" d="M80.43,-63.24C113.95,-63.24 96.27,-118.45 118.99,-130.1"/>
<polygon fill="black" stroke="black" points="118.35,-133.54 128.86,-132.24 119.83,-126.7 118.35,-133.54"/>
</g>
<!-- c30 -->
<g id="node20" class="node">
<title>c30</title>
<polygon fill="none" stroke="black" points="1436.52,-72.74 1436.52,-141.74 1551.52,-141.74 1551.52,-72.74 1436.52,-72.74"/>
<text text-anchor="middle" x="1450.02" y="-126.54" font-family="Times,serif" font-size="14.00">A</text>
<polyline fill="none" stroke="black" points="1436.52,-118.74 1463.52,-118.74 "/>
<text text-anchor="middle" x="1450.02" y="-103.54" font-family="Times,serif" font-size="14.00">B</text>
<polyline fill="none" stroke="black" points="1436.52,-95.74 1463.52,-95.74 "/>
<text text-anchor="middle" x="1450.02" y="-80.54" font-family="Times,serif" font-size="14.00">S</text>
<polyline fill="none" stroke="black" points="1463.52,-72.74 1463.52,-141.74 "/>
<text text-anchor="middle" x="1494.52" y="-111.04" font-family="Times,serif" font-size="14.00">$2524</text>
<text text-anchor="middle" x="1494.52" y="-96.04" font-family="Times,serif" font-size="14.00">$mux</text>
<polyline fill="none" stroke="black" points="1525.52,-72.74 1525.52,-141.74 "/>
<text text-anchor="middle" x="1538.52" y="-103.54" font-family="Times,serif" font-size="14.00">Y</text>
</g>
<!-- n10&#45;&gt;c30 -->
<g id="edge4" class="edge">
<title>n10:e&#45;&gt;c30:w</title>
<path fill="none" stroke="black" d="M80.43,-63.24C188.47,-63.24 212.33,-24.24 320.36,-24.24 320.36,-24.24 320.36,-24.24 1142.98,-24.24 1258.38,-24.24 1293.59,-13.85 1400.52,-57.24 1415.15,-63.18 1416.65,-76.56 1426.47,-81.94"/>
<polygon fill="black" stroke="black" points="1425.99,-85.42 1436.52,-84.24 1427.56,-78.6 1425.99,-85.42"/>
</g>
<!-- n11 -->
<g id="node6" class="node">
<title>n11</title>
<polygon fill="none" stroke="black" points="1395.14,-76.79 1395.14,-91.7 1364.61,-102.24 1321.44,-102.24 1290.91,-91.7 1290.91,-76.79 1321.44,-66.24 1364.61,-66.24 1395.14,-76.79"/>
<text text-anchor="middle" x="1343.02" y="-80.54" font-family="Times,serif" font-size="14.00">load_val</text>
</g>
<!-- n11&#45;&gt;c30 -->
<g id="edge6" class="edge">
<title>n11:e&#45;&gt;c30:w</title>
<path fill="none" stroke="black" stroke-width="3" d="M1396.02,-84.24C1412.68,-84.24 1415.35,-99.13 1426.54,-104.95"/>
<polygon fill="black" stroke="black" stroke-width="3" points="1425.99,-108.42 1436.52,-107.24 1427.56,-101.59 1425.99,-108.42"/>
</g>
<!-- n12 -->
<g id="node7" class="node">
<title>n12</title>
<polygon fill="none" stroke="black" points="551.15,-62.79 551.15,-77.7 528.14,-88.24 495.59,-88.24 472.57,-77.7 472.57,-62.79 495.59,-52.24 528.14,-52.24 551.15,-62.79"/>
<text text-anchor="middle" x="511.86" y="-66.54" font-family="Times,serif" font-size="14.00">offset</text>
</g>
<!-- x1 -->
<g id="node13" class="node">
<title>x1</title>
<path fill="none" stroke="black" d="M698.15,-55.24C698.15,-55.24 780.15,-55.24 780.15,-55.24 786.15,-55.24 792.15,-61.24 792.15,-67.24 792.15,-67.24 792.15,-89.24 792.15,-89.24 792.15,-95.24 786.15,-101.24 780.15,-101.24 780.15,-101.24 698.15,-101.24 698.15,-101.24 692.15,-101.24 686.15,-95.24 686.15,-89.24 686.15,-89.24 686.15,-67.24 686.15,-67.24 686.15,-61.24 692.15,-55.24 698.15,-55.24"/>
<text text-anchor="middle" x="739.15" y="-86.04" font-family="Times,serif" font-size="14.00">8x 7:7 &#45; 15:8</text>
<polyline fill="none" stroke="black" points="686.15,-78.24 792.15,-78.24 "/>
<text text-anchor="middle" x="739.15" y="-63.04" font-family="Times,serif" font-size="14.00">7:0 &#45; 7:0</text>
</g>
<!-- n12&#45;&gt;x1 -->
<g id="edge7" class="edge">
<title>n12:e&#45;&gt;x1:w</title>
<path fill="none" stroke="black" stroke-width="3" d="M551.86,-70.24C607.54,-70.24 623.93,-66.71 674.86,-66.28"/>
<polygon fill="black" stroke="black" stroke-width="3" points="675.16,-69.78 685.15,-66.24 675.14,-62.78 675.16,-69.78"/>
</g>
<!-- n12&#45;&gt;x1 -->
<g id="edge8" class="edge">
<title>n12:e&#45;&gt;x1:w</title>
<path fill="none" stroke="black" stroke-width="3" d="M551.86,-70.24C608.25,-70.24 623.51,-87.97 675.08,-90.04"/>
<polygon fill="black" stroke="black" stroke-width="3" points="675.08,-93.54 685.15,-90.24 675.22,-86.55 675.08,-93.54"/>
</g>
<!-- n13 -->
<g id="node8" class="node">
<title>n13</title>
<polygon fill="none" stroke="black" points="766.15,-180.79 766.15,-195.7 750.33,-206.24 727.97,-206.24 712.15,-195.7 712.15,-180.79 727.97,-170.24 750.33,-170.24 766.15,-180.79"/>
<text text-anchor="middle" x="739.15" y="-184.54" font-family="Times,serif" font-size="14.00">pc</text>
</g>
<!-- c18 -->
<g id="node11" class="node">
<title>c18</title>
<polygon fill="none" stroke="black" points="893.44,-263.24 893.44,-309.24 998.44,-309.24 998.44,-263.24 893.44,-263.24"/>
<text text-anchor="middle" x="906.94" y="-294.04" font-family="Times,serif" font-size="14.00">A</text>
<polyline fill="none" stroke="black" points="893.44,-286.24 920.44,-286.24 "/>
<text text-anchor="middle" x="906.94" y="-271.04" font-family="Times,serif" font-size="14.00">B</text>
<polyline fill="none" stroke="black" points="920.44,-263.24 920.44,-309.24 "/>
<text text-anchor="middle" x="946.44" y="-290.04" font-family="Times,serif" font-size="14.00">$35</text>
<text text-anchor="middle" x="946.44" y="-275.04" font-family="Times,serif" font-size="14.00">$add</text>
<polyline fill="none" stroke="black" points="972.44,-263.24 972.44,-309.24 "/>
<text text-anchor="middle" x="985.44" y="-282.54" font-family="Times,serif" font-size="14.00">Y</text>
</g>
<!-- n13&#45;&gt;c18 -->
<g id="edge10" class="edge">
<title>n13:e&#45;&gt;c18:w</title>
<path fill="none" stroke="black" stroke-width="3" d="M767.15,-188.24C816.6,-188.24 821.6,-219.18 857.44,-253.24 872.96,-267.99 869.79,-289.53 883.3,-296.2"/>
<polygon fill="black" stroke="black" stroke-width="3" points="882.95,-299.7 893.44,-298.24 884.33,-292.83 882.95,-299.7"/>
</g>
<!-- c19 -->
<g id="node12" class="node">
<title>c19</title>
<polygon fill="none" stroke="black" points="893.44,-159.24 893.44,-205.24 998.44,-205.24 998.44,-159.24 893.44,-159.24"/>
<text text-anchor="middle" x="906.94" y="-190.04" font-family="Times,serif" font-size="14.00">A</text>
<polyline fill="none" stroke="black" points="893.44,-182.24 920.44,-182.24 "/>
<text text-anchor="middle" x="906.94" y="-167.04" font-family="Times,serif" font-size="14.00">B</text>
<polyline fill="none" stroke="black" points="920.44,-159.24 920.44,-205.24 "/>
<text text-anchor="middle" x="946.44" y="-186.04" font-family="Times,serif" font-size="14.00">$32</text>
<text text-anchor="middle" x="946.44" y="-171.04" font-family="Times,serif" font-size="14.00">$add</text>
<polyline fill="none" stroke="black" points="972.44,-159.24 972.44,-205.24 "/>
<text text-anchor="middle" x="985.44" y="-178.54" font-family="Times,serif" font-size="14.00">Y</text>
</g>
<!-- n13&#45;&gt;c19 -->
<g id="edge11" class="edge">
<title>n13:e&#45;&gt;c19:w</title>
<path fill="none" stroke="black" stroke-width="3" d="M767.15,-188.24C819.83,-188.24 835.34,-193.51 883.38,-194.17"/>
<polygon fill="black" stroke="black" stroke-width="3" points="883.42,-197.67 893.44,-194.24 883.46,-190.67 883.42,-197.67"/>
</g>
<!-- n14 -->
<g id="node9" class="node">
<title>n14</title>
<polygon fill="none" stroke="black" points="358.43,-180.79 358.43,-195.7 336.72,-206.24 306.01,-206.24 284.29,-195.7 284.29,-180.79 306.01,-170.24 336.72,-170.24 358.43,-180.79"/>
<text text-anchor="middle" x="321.36" y="-184.54" font-family="Times,serif" font-size="14.00">rst_n</text>
</g>
<!-- n14&#45;&gt;c25 -->
<g id="edge12" class="edge">
<title>n14:e&#45;&gt;c25:w</title>
<path fill="none" stroke="black" d="M359.36,-188.24C391.11,-188.24 401.46,-188.24 428.86,-188.24"/>
<polygon fill="black" stroke="black" points="428.86,-191.74 438.86,-188.24 428.86,-184.74 428.86,-191.74"/>
</g>
<!-- v0 -->
<g id="node10" class="node">
<title>v0</title>
<ellipse fill="none" stroke="black" cx="739.15" cy="-280.24" rx="118.08" ry="18"/>
<text text-anchor="middle" x="739.15" y="-276.54" font-family="Times,serif" font-size="14.00">16&#39;0000000000000001</text>
</g>
<!-- v0&#45;&gt;c18 -->
<g id="edge24" class="edge">
<title>v0:e&#45;&gt;c18:w</title>
<path fill="none" stroke="black" stroke-width="3" d="M857.44,-280.24C869.61,-280.24 874.65,-276.87 883.25,-275.18"/>
<polygon fill="black" stroke="black" stroke-width="3" points="883.8,-278.64 893.44,-274.24 883.16,-271.67 883.8,-278.64"/>
</g>
<!-- c18&#45;&gt;c28 -->
<g id="edge13" class="edge">
<title>c18:e&#45;&gt;c28:w</title>
<path fill="none" stroke="black" stroke-width="3" d="M998.44,-286.24C1032.87,-286.24 1042.93,-274.03 1072.6,-271.64"/>
<polygon fill="black" stroke="black" stroke-width="3" points="1073.12,-275.13 1082.98,-271.24 1072.85,-268.13 1073.12,-275.13"/>
</g>
<!-- c19&#45;&gt;n7 -->
<g id="edge19" class="edge">
<title>c19:e&#45;&gt;n7:w</title>
<path fill="none" stroke="black" stroke-width="3" d="M998.44,-182.24C1010.46,-182.24 1015.69,-183.37 1024.31,-183.93"/>
<polygon fill="black" stroke="black" stroke-width="3" points="1024.34,-187.43 1034.44,-184.24 1024.55,-180.43 1024.34,-187.43"/>
</g>
<!-- x1&#45;&gt;c19 -->
<g id="edge1" class="edge">
<title>x1:e&#45;&gt;c19:w</title>
<path fill="none" stroke="black" stroke-width="3" d="M805.34,-79.69C847.36,-90.45 839.24,-158.04 881.26,-168.8"/>
<polygon fill="none" stroke="black" stroke-width="3" points="805.07,-79.65 798.64,-82.92 793.15,-78.24 799.58,-74.98 805.07,-79.65"/>
<polygon fill="none" stroke="black" stroke-width="3" points="881.52,-168.83 887.95,-165.56 893.44,-170.24 887.01,-173.51 881.52,-168.83"/>
</g>
<!-- c25&#45;&gt;n13 -->
<g id="edge9" class="edge">
<title>c25:e&#45;&gt;n13:w</title>
<path fill="none" stroke="black" stroke-width="3" d="M584.86,-153.24C639.58,-153.24 651.54,-184.13 701.08,-187.87"/>
<polygon fill="black" stroke="black" stroke-width="3" points="701.03,-191.37 711.15,-188.24 701.29,-184.38 701.03,-191.37"/>
</g>
<!-- c26 -->
<g id="node15" class="node">
<title>c26</title>
<polygon fill="none" stroke="black" points="239.86,-59.24 239.86,-97.24 402.86,-97.24 402.86,-59.24 239.86,-59.24"/>
<text text-anchor="middle" x="252.86" y="-74.54" font-family="Times,serif" font-size="14.00">A</text>
<polyline fill="none" stroke="black" points="265.86,-59.24 265.86,-97.24 "/>
<text text-anchor="middle" x="321.36" y="-82.04" font-family="Times,serif" font-size="14.00">$2686</text>
<text text-anchor="middle" x="321.36" y="-67.04" font-family="Times,serif" font-size="14.00">$reduce_bool</text>
<polyline fill="none" stroke="black" points="376.86,-59.24 376.86,-97.24 "/>
<text text-anchor="middle" x="389.86" y="-74.54" font-family="Times,serif" font-size="14.00">Y</text>
</g>
<!-- c26&#45;&gt;c25 -->
<g id="edge14" class="edge">
<title>c26:e&#45;&gt;c25:w</title>
<path fill="none" stroke="black" d="M402.86,-78.24C422.67,-78.24 417.96,-105.67 429.33,-115.1"/>
<polygon fill="black" stroke="black" points="428.27,-118.44 438.86,-118.24 430.46,-111.79 428.27,-118.44"/>
</g>
<!-- x2&#45;&gt;c26 -->
<g id="edge2" class="edge">
<title>x2:e&#45;&gt;c26:w</title>
<path fill="none" stroke="black" stroke-width="3" d="M215.1,-127.64C224.04,-117.44 219.68,-93.03 228.63,-82.83"/>
<polygon fill="none" stroke="black" stroke-width="3" points="214.97,-127.69 210.93,-133.67 203.86,-132.24 207.9,-126.27 214.97,-127.69"/>
<polygon fill="none" stroke="black" stroke-width="3" points="228.75,-82.78 232.79,-76.81 239.86,-78.24 235.82,-84.21 228.75,-82.78"/>
</g>
<!-- v3 -->
<g id="node17" class="node">
<title>v3</title>
<ellipse fill="none" stroke="black" cx="945.94" cy="-346.24" rx="30.59" ry="18"/>
<text text-anchor="middle" x="945.94" y="-342.54" font-family="Times,serif" font-size="14.00">16&#39;x</text>
</g>
<!-- v3&#45;&gt;c28 -->
<g id="edge25" class="edge">
<title>v3:e&#45;&gt;c28:w</title>
<path fill="none" stroke="black" stroke-width="3" d="M977.94,-346.24C1026.47,-346.24 1030.53,-301.11 1072.98,-294.94"/>
<polygon fill="black" stroke="black" stroke-width="3" points="1073.25,-298.43 1082.98,-294.24 1072.76,-291.44 1073.25,-298.43"/>
</g>
<!-- c28&#45;&gt;c29 -->
<g id="edge15" class="edge">
<title>c28:e&#45;&gt;c29:w</title>
<path fill="none" stroke="black" stroke-width="3" d="M1200.98,-271.24C1235.97,-271.24 1245.26,-254.82 1275.44,-251.74"/>
<polygon fill="black" stroke="black" stroke-width="3" points="1275.71,-255.23 1285.52,-251.24 1275.36,-248.24 1275.71,-255.23"/>
</g>
<!-- c29&#45;&gt;c30 -->
<g id="edge16" class="edge">
<title>c29:e&#45;&gt;c30:w</title>
<path fill="none" stroke="black" stroke-width="3" d="M1400.52,-228.24C1442.94,-228.24 1399.12,-146.36 1426.72,-132.29"/>
<polygon fill="black" stroke="black" stroke-width="3" points="1427.45,-135.71 1436.52,-130.24 1426.02,-128.86 1427.45,-135.71"/>
</g>
<!-- c30&#45;&gt;c25 -->
<g id="edge3" class="edge">
<title>c30:e&#45;&gt;c25:w</title>
<path fill="none" stroke="black" stroke-width="3" d="M1553.02,-107.24C1568.58,-107.24 1563.18,-131.4 1552.02,-142.24 1515.21,-178.02 1487.85,-143.29 1436.52,-142.24 1305.98,-139.57 1273.55,-130.24 1142.98,-130.24 944.94,-130.24 944.94,-130.24 944.94,-130.24 800.63,-130.24 764.72,-121.67 620.86,-110.24 604.84,-108.97 600.92,-107.52 584.86,-106.74 552.45,-105.17 462.13,-84.13 438.86,-106.74 431.12,-114.26 426.19,-128.26 429.27,-135.91"/>
<polygon fill="black" stroke="black" stroke-width="3" points="427.52,-138.94 437.86,-141.24 431.21,-132.99 427.52,-138.94"/>
</g>
</g>
</svg>
