<svg xmlns="http://www.w3.org/2000/svg" xmlns:xlink="http://www.w3.org/1999/xlink" xmlns:s="https://github.com/nturley/netlistsvg" width="1317" height="742.5">
  <style>svg {
    stroke:#000;
    fill:none;
  }
  text {
    fill:#000;
    stroke:none;
    font-size:10px;
    font-weight: bold;
    font-family: "Courier New", monospace;
  }
  .nodelabel {
    text-anchor: middle;
  }
  .inputPortLabel {
    text-anchor: end;
  }
  .splitjoinBody {
    fill:#000;
  }</style>
  <g s:type="add" transform="translate(1243,225.5)" s:width="25" s:height="25" id="cell_$add$/home/jo/kiro/RV8/rv8_cpu.v:132$38">
    <s:alias val="$add"/>
    <circle r="12.5" cx="12.5" cy="12.5" class="cell_$add$/home/jo/kiro/RV8/rv8_cpu.v:132$38"/>
    <line x1="7.5" x2="17.5" y1="12.5" y2="12.5" class="cell_$add$/home/jo/kiro/RV8/rv8_cpu.v:132$38"/>
    <line x1="12.5" x2="12.5" y1="7.5" y2="17.5" class="cell_$add$/home/jo/kiro/RV8/rv8_cpu.v:132$38"/>
    <g s:x="3" s:y="5" s:pid="A"/>
    <g s:x="3" s:y="20" s:pid="B"/>
    <g s:x="25" s:y="12.5" s:pid="Y"/>
  </g>
  <g s:type="generic" transform="translate(993,150)" s:width="30" s:height="40" id="cell_$auto$ff.cc:266:slice$156">
    <text x="15" y="-4" class="nodelabel cell_$auto$ff.cc:266:slice$156" s:attribute="ref">$adffe</text>
    <rect width="30" height="80" s:generic="body" class="cell_$auto$ff.cc:266:slice$156"/>
    <g transform="translate(0,10)" s:x="0" s:y="10" s:pid="in0" id="port_$auto$ff.cc:266:slice$156~ARST">
      <text x="-3" y="-4" class="inputPortLabel cell_$auto$ff.cc:266:slice$156">ARST</text>
    </g>
    <g transform="translate(0,30)" s:x="0" s:y="10" s:pid="in0" id="port_$auto$ff.cc:266:slice$156~CLK">
      <text x="-3" y="-4" class="inputPortLabel cell_$auto$ff.cc:266:slice$156">CLK</text>
    </g>
    <g transform="translate(0,50)" s:x="0" s:y="10" s:pid="in0" id="port_$auto$ff.cc:266:slice$156~D">
      <text x="-3" y="-4" class="inputPortLabel cell_$auto$ff.cc:266:slice$156">D</text>
    </g>
    <g transform="translate(0,70)" s:x="0" s:y="10" s:pid="in0" id="port_$auto$ff.cc:266:slice$156~EN">
      <text x="-3" y="-4" class="inputPortLabel cell_$auto$ff.cc:266:slice$156">EN</text>
    </g>
    <g transform="translate(30,10)" s:x="30" s:y="10" s:pid="out0" id="port_$auto$ff.cc:266:slice$156~Q">
      <text x="5" y="-4" style="fill:#000; stroke:none" class="cell_$auto$ff.cc:266:slice$156">Q</text>
    </g>
  </g>
  <g s:type="generic" transform="translate(993,22)" s:width="30" s:height="40" id="cell_$auto$ff.cc:266:slice$163">
    <text x="15" y="-4" class="nodelabel cell_$auto$ff.cc:266:slice$163" s:attribute="ref">$adffe</text>
    <rect width="30" height="80" s:generic="body" class="cell_$auto$ff.cc:266:slice$163"/>
    <g transform="translate(0,10)" s:x="0" s:y="10" s:pid="in0" id="port_$auto$ff.cc:266:slice$163~ARST">
      <text x="-3" y="-4" class="inputPortLabel cell_$auto$ff.cc:266:slice$163">ARST</text>
    </g>
    <g transform="translate(0,30)" s:x="0" s:y="10" s:pid="in0" id="port_$auto$ff.cc:266:slice$163~CLK">
      <text x="-3" y="-4" class="inputPortLabel cell_$auto$ff.cc:266:slice$163">CLK</text>
    </g>
    <g transform="translate(0,50)" s:x="0" s:y="10" s:pid="in0" id="port_$auto$ff.cc:266:slice$163~D">
      <text x="-3" y="-4" class="inputPortLabel cell_$auto$ff.cc:266:slice$163">D</text>
    </g>
    <g transform="translate(0,70)" s:x="0" s:y="10" s:pid="in0" id="port_$auto$ff.cc:266:slice$163~EN">
      <text x="-3" y="-4" class="inputPortLabel cell_$auto$ff.cc:266:slice$163">EN</text>
    </g>
    <g transform="translate(30,10)" s:x="30" s:y="10" s:pid="out0" id="port_$auto$ff.cc:266:slice$163~Q">
      <text x="5" y="-4" style="fill:#000; stroke:none" class="cell_$auto$ff.cc:266:slice$163">Q</text>
    </g>
  </g>
  <g s:type="generic" transform="translate(261,678.5)" s:width="30" s:height="40" id="cell_$auto$opt_dff.cc:195:make_patterns_logic$158">
    <text x="15" y="-4" class="nodelabel cell_$auto$opt_dff.cc:195:make_patterns_logic$158" s:attribute="ref">$reduce_bool</text>
    <rect width="30" height="20" s:generic="body" class="cell_$auto$opt_dff.cc:195:make_patterns_logic$158"/>
    <g transform="translate(0,10)" s:x="0" s:y="10" s:pid="in0" id="port_$auto$opt_dff.cc:195:make_patterns_logic$158~A">
      <text x="-3" y="-4" class="inputPortLabel cell_$auto$opt_dff.cc:195:make_patterns_logic$158">A</text>
    </g>
    <g transform="translate(30,10)" s:x="30" s:y="10" s:pid="out0" id="port_$auto$opt_dff.cc:195:make_patterns_logic$158~Y">
      <text x="5" y="-4" style="fill:#000; stroke:none" class="cell_$auto$opt_dff.cc:195:make_patterns_logic$158">Y</text>
    </g>
  </g>
  <g s:type="generic" transform="translate(261,582)" s:width="30" s:height="40" id="cell_$auto$opt_dff.cc:195:make_patterns_logic$160">
    <text x="15" y="-4" class="nodelabel cell_$auto$opt_dff.cc:195:make_patterns_logic$160" s:attribute="ref">$ne</text>
    <rect width="30" height="40" s:generic="body" class="cell_$auto$opt_dff.cc:195:make_patterns_logic$160"/>
    <g transform="translate(0,10)" s:x="0" s:y="10" s:pid="in0" id="port_$auto$opt_dff.cc:195:make_patterns_logic$160~A">
      <text x="-3" y="-4" class="inputPortLabel cell_$auto$opt_dff.cc:195:make_patterns_logic$160">A</text>
    </g>
    <g transform="translate(0,30)" s:x="0" s:y="10" s:pid="in0" id="port_$auto$opt_dff.cc:195:make_patterns_logic$160~B">
      <text x="-3" y="-4" class="inputPortLabel cell_$auto$opt_dff.cc:195:make_patterns_logic$160">B</text>
    </g>
    <g transform="translate(30,10)" s:x="30" s:y="10" s:pid="out0" id="port_$auto$opt_dff.cc:195:make_patterns_logic$160~Y">
      <text x="5" y="-4" style="fill:#000; stroke:none" class="cell_$auto$opt_dff.cc:195:make_patterns_logic$160">Y</text>
    </g>
  </g>
  <g s:type="generic" transform="translate(261,225.5)" s:width="30" s:height="40" id="cell_$auto$opt_dff.cc:195:make_patterns_logic$165">
    <text x="15" y="-4" class="nodelabel cell_$auto$opt_dff.cc:195:make_patterns_logic$165" s:attribute="ref">$reduce_bool</text>
    <rect width="30" height="20" s:generic="body" class="cell_$auto$opt_dff.cc:195:make_patterns_logic$165"/>
    <g transform="translate(0,10)" s:x="0" s:y="10" s:pid="in0" id="port_$auto$opt_dff.cc:195:make_patterns_logic$165~A">
      <text x="-3" y="-4" class="inputPortLabel cell_$auto$opt_dff.cc:195:make_patterns_logic$165">A</text>
    </g>
    <g transform="translate(30,10)" s:x="30" s:y="10" s:pid="out0" id="port_$auto$opt_dff.cc:195:make_patterns_logic$165~Y">
      <text x="5" y="-4" style="fill:#000; stroke:none" class="cell_$auto$opt_dff.cc:195:make_patterns_logic$165">Y</text>
    </g>
  </g>
  <g s:type="not" transform="translate(374.5,283.5)" s:width="30" s:height="20" id="cell_$auto$opt_dff.cc:210:make_patterns_logic$166">
    <s:alias val="$_NOT_"/>
    <s:alias val="$not"/>
    <s:alias val="$logic_not"/>
    <path d="M0,0 L0,20 L20,10 Z" class="cell_$auto$opt_dff.cc:210:make_patterns_logic$166"/>
    <circle cx="23" cy="10" r="3" class="cell_$auto$opt_dff.cc:210:make_patterns_logic$166"/>
    <g s:x="0" s:y="10" s:pid="A"/>
    <g s:x="25" s:y="10" s:pid="Y"/>
  </g>
  <g s:type="generic" transform="translate(644,592)" s:width="30" s:height="40" id="cell_$auto$opt_dff.cc:220:make_patterns_logic$162">
    <text x="15" y="-4" class="nodelabel cell_$auto$opt_dff.cc:220:make_patterns_logic$162" s:attribute="ref">$reduce_and</text>
    <rect width="30" height="20" s:generic="body" class="cell_$auto$opt_dff.cc:220:make_patterns_logic$162"/>
    <g transform="translate(0,10)" s:x="0" s:y="10" s:pid="in0" id="port_$auto$opt_dff.cc:220:make_patterns_logic$162~A">
      <text x="-3" y="-4" class="inputPortLabel cell_$auto$opt_dff.cc:220:make_patterns_logic$162">A</text>
    </g>
    <g transform="translate(30,10)" s:x="30" s:y="10" s:pid="out0" id="port_$auto$opt_dff.cc:220:make_patterns_logic$162~Y">
      <text x="5" y="-4" style="fill:#000; stroke:none" class="cell_$auto$opt_dff.cc:220:make_patterns_logic$162">Y</text>
    </g>
  </g>
  <g s:type="generic" transform="translate(644,235.5)" s:width="30" s:height="40" id="cell_$auto$opt_dff.cc:220:make_patterns_logic$169">
    <text x="15" y="-4" class="nodelabel cell_$auto$opt_dff.cc:220:make_patterns_logic$169" s:attribute="ref">$reduce_and</text>
    <rect width="30" height="20" s:generic="body" class="cell_$auto$opt_dff.cc:220:make_patterns_logic$169"/>
    <g transform="translate(0,10)" s:x="0" s:y="10" s:pid="in0" id="port_$auto$opt_dff.cc:220:make_patterns_logic$169~A">
      <text x="-3" y="-4" class="inputPortLabel cell_$auto$opt_dff.cc:220:make_patterns_logic$169">A</text>
    </g>
    <g transform="translate(30,10)" s:x="30" s:y="10" s:pid="out0" id="port_$auto$opt_dff.cc:220:make_patterns_logic$169~Y">
      <text x="5" y="-4" style="fill:#000; stroke:none" class="cell_$auto$opt_dff.cc:220:make_patterns_logic$169">Y</text>
    </g>
  </g>
  <g s:type="mux" transform="translate(340,57.5)" s:width="20" s:height="40" id="cell_$procmux$132">
    <s:alias val="$pmux"/>
    <s:alias val="$mux"/>
    <s:alias val="$_MUX_"/>
    <path d="M0,0 L20,10 L20,30 L0,40 Z" class="cell_$procmux$132"/>
    <g s:x="0" s:y="10" s:pid="A"/>
    <g s:x="0" s:y="30" s:pid="B"/>
    <g s:x="10" s:y="35" s:pid="S"/>
    <g s:x="20" s:y="20" s:pid="Y"/>
  </g>
  <g s:type="mux" transform="translate(569.6666666666666,67.5)" s:width="20" s:height="40" id="cell_$procmux$135">
    <s:alias val="$pmux"/>
    <s:alias val="$mux"/>
    <s:alias val="$_MUX_"/>
    <path d="M0,0 L20,10 L20,30 L0,40 Z" class="cell_$procmux$135"/>
    <g s:x="0" s:y="10" s:pid="A"/>
    <g s:x="0" s:y="30" s:pid="B"/>
    <g s:x="10" s:y="35" s:pid="S"/>
    <g s:x="20" s:y="20" s:pid="Y"/>
  </g>
  <g s:type="mux" transform="translate(723,77.5)" s:width="20" s:height="40" id="cell_$procmux$138">
    <s:alias val="$pmux"/>
    <s:alias val="$mux"/>
    <s:alias val="$_MUX_"/>
    <path d="M0,0 L20,10 L20,30 L0,40 Z" class="cell_$procmux$138"/>
    <g s:x="0" s:y="10" s:pid="A"/>
    <g s:x="0" s:y="30" s:pid="B"/>
    <g s:x="10" s:y="35" s:pid="S"/>
    <g s:x="20" s:y="20" s:pid="Y"/>
  </g>
  <g s:type="mux" transform="translate(193.66666666666666,366)" s:width="20" s:height="40" id="cell_$procmux$143">
    <s:alias val="$pmux"/>
    <s:alias val="$mux"/>
    <s:alias val="$_MUX_"/>
    <path d="M0,0 L20,10 L20,30 L0,40 Z" class="cell_$procmux$143"/>
    <g s:x="0" s:y="10" s:pid="A"/>
    <g s:x="0" s:y="30" s:pid="B"/>
    <g s:x="10" s:y="35" s:pid="S"/>
    <g s:x="20" s:y="20" s:pid="Y"/>
  </g>
  <g s:type="mux" transform="translate(340,376)" s:width="20" s:height="40" id="cell_$procmux$146">
    <s:alias val="$pmux"/>
    <s:alias val="$mux"/>
    <s:alias val="$_MUX_"/>
    <path d="M0,0 L20,10 L20,30 L0,40 Z" class="cell_$procmux$146"/>
    <g s:x="0" s:y="10" s:pid="A"/>
    <g s:x="0" s:y="30" s:pid="B"/>
    <g s:x="10" s:y="35" s:pid="S"/>
    <g s:x="20" s:y="20" s:pid="Y"/>
  </g>
  <g s:type="mux" transform="translate(569.6666666666666,386)" s:width="20" s:height="40" id="cell_$procmux$149">
    <s:alias val="$pmux"/>
    <s:alias val="$mux"/>
    <s:alias val="$_MUX_"/>
    <path d="M0,0 L20,10 L20,30 L0,40 Z" class="cell_$procmux$149"/>
    <g s:x="0" s:y="10" s:pid="A"/>
    <g s:x="0" s:y="30" s:pid="B"/>
    <g s:x="10" s:y="35" s:pid="S"/>
    <g s:x="20" s:y="20" s:pid="Y"/>
  </g>
  <g s:type="mux" transform="translate(723,293.5)" s:width="20" s:height="40" id="cell_$procmux$152">
    <s:alias val="$pmux"/>
    <s:alias val="$mux"/>
    <s:alias val="$_MUX_"/>
    <path d="M0,0 L20,10 L20,30 L0,40 Z" class="cell_$procmux$152"/>
    <g s:x="0" s:y="10" s:pid="A"/>
    <g s:x="0" s:y="30" s:pid="B"/>
    <g s:x="10" s:y="35" s:pid="S"/>
    <g s:x="20" s:y="20" s:pid="Y"/>
  </g>
  <g s:type="sub" transform="translate(1243,165.5)" s:width="25" s:height="25" id="cell_$sub$/home/jo/kiro/RV8/rv8_cpu.v:134$39">
    <s:alias val="$sub"/>
    <circle r="12.5" cx="12.5" cy="12.5" class="cell_$sub$/home/jo/kiro/RV8/rv8_cpu.v:134$39"/>
    <line x1="7.5" x2="17.5" y1="12.5" y2="12.5" class="cell_$sub$/home/jo/kiro/RV8/rv8_cpu.v:134$39"/>
    <g s:x="3" s:y="5" s:pid="A"/>
    <g s:x="3" s:y="20" s:pid="B"/>
    <g s:x="25" s:y="12.5" s:pid="Y"/>
  </g>
  <g s:type="inputExt" transform="translate(644,170.5)" s:width="30" s:height="20" id="cell_clk">
    <text x="15" y="-4" class="nodelabel cell_clk" s:attribute="ref">clk</text>
    <s:alias val="$_inputExt_"/>
    <path d="M0,0 L0,20 L15,20 L30,10 L15,0 Z" class="cell_clk"/>
    <g s:x="28" s:y="10" s:pid="Y"/>
  </g>
  <g s:type="inputExt" transform="translate(644,22.5)" s:width="30" s:height="20" id="cell_rst_n">
    <text x="15" y="-4" class="nodelabel cell_rst_n" s:attribute="ref">rst_n</text>
    <s:alias val="$_inputExt_"/>
    <path d="M0,0 L0,20 L15,20 L30,10 L15,0 Z" class="cell_rst_n"/>
    <g s:x="28" s:y="10" s:pid="Y"/>
  </g>
  <g s:type="inputExt" transform="translate(12,549)" s:width="30" s:height="20" id="cell_load_pl">
    <text x="15" y="-4" class="nodelabel cell_load_pl" s:attribute="ref">load_pl</text>
    <s:alias val="$_inputExt_"/>
    <path d="M0,0 L0,20 L15,20 L30,10 L15,0 Z" class="cell_load_pl"/>
    <g s:x="28" s:y="10" s:pid="Y"/>
  </g>
  <g s:type="inputExt" transform="translate(12,129.5)" s:width="30" s:height="20" id="cell_load_ph">
    <text x="15" y="-4" class="nodelabel cell_load_ph" s:attribute="ref">load_ph</text>
    <s:alias val="$_inputExt_"/>
    <path d="M0,0 L0,20 L15,20 L30,10 L15,0 Z" class="cell_load_ph"/>
    <g s:x="28" s:y="10" s:pid="Y"/>
  </g>
  <g s:type="inputExt" transform="translate(94,321)" s:width="30" s:height="20" id="cell_inc16">
    <text x="15" y="-4" class="nodelabel cell_inc16" s:attribute="ref">inc16</text>
    <s:alias val="$_inputExt_"/>
    <path d="M0,0 L0,20 L15,20 L30,10 L15,0 Z" class="cell_inc16"/>
    <g s:x="28" s:y="10" s:pid="Y"/>
  </g>
  <g s:type="inputExt" transform="translate(94,256)" s:width="30" s:height="20" id="cell_dec16">
    <text x="15" y="-4" class="nodelabel cell_dec16" s:attribute="ref">dec16</text>
    <s:alias val="$_inputExt_"/>
    <path d="M0,0 L0,20 L15,20 L30,10 L15,0 Z" class="cell_dec16"/>
    <g s:x="28" s:y="10" s:pid="Y"/>
  </g>
  <g s:type="inputExt" transform="translate(560,313.5)" s:width="30" s:height="20" id="cell_data_in">
    <text x="15" y="-4" class="nodelabel cell_data_in" s:attribute="ref">data_in</text>
    <s:alias val="$_inputExt_"/>
    <path d="M0,0 L0,20 L15,20 L30,10 L15,0 Z" class="cell_data_in"/>
    <g s:x="28" s:y="10" s:pid="Y"/>
  </g>
  <g s:type="outputExt" transform="translate(1243,110.5)" s:width="30" s:height="20" id="cell_ptr_out">
    <text x="15" y="-4" class="nodelabel cell_ptr_out" s:attribute="ref">ptr_out</text>
    <s:alias val="$_outputExt_"/>
    <path d="M30,0 L30,20 L15,20 L0,10 L15,0 Z" class="cell_ptr_out"/>
    <g s:x="0" s:y="10" s:pid="A"/>
  </g>
  <g s:type="outputExt" transform="translate(1243,295.5)" s:width="30" s:height="20" id="cell_pl_out">
    <text x="15" y="-4" class="nodelabel cell_pl_out" s:attribute="ref">pl_out</text>
    <s:alias val="$_outputExt_"/>
    <path d="M30,0 L30,20 L15,20 L0,10 L15,0 Z" class="cell_pl_out"/>
    <g s:x="0" s:y="10" s:pid="A"/>
  </g>
  <g s:type="outputExt" transform="translate(1243,22.5)" s:width="30" s:height="20" id="cell_ph_out">
    <text x="15" y="-4" class="nodelabel cell_ph_out" s:attribute="ref">ph_out</text>
    <s:alias val="$_outputExt_"/>
    <path d="M30,0 L30,20 L15,20 L0,10 L15,0 Z" class="cell_ph_out"/>
    <g s:x="0" s:y="10" s:pid="A"/>
  </g>
  <g s:type="constant" transform="translate(1178,235.5)" s:width="30" s:height="20" id="cell_0000000000000001">
    <text x="15" y="-4" class="nodelabel cell_0000000000000001" s:attribute="ref">0x1</text>
    <s:alias val="$_constant_"/>
    <rect width="30" height="20" class="cell_0000000000000001"/>
    <g s:x="30" s:y="10" s:pid="Y"/>
  </g>
  <g s:type="constant" transform="translate(184,613.5)" s:width="30" s:height="20" id="cell_10">
    <text x="15" y="-4" class="nodelabel cell_10" s:attribute="ref">10</text>
    <s:alias val="$_constant_"/>
    <rect width="30" height="20" class="cell_10"/>
    <g s:x="30" s:y="10" s:pid="Y"/>
  </g>
  <g s:type="join" transform="translate(1197,150)" s:width="4" s:height="40" id="cell_$join$,16,17,18,19,20,21,22,23,24,25,26,27,28,29,30,31,">
    <rect width="5" height="40" class="splitjoinBody" s:generic="body"/>
    <s:alias val="$_join_"/>
    <g s:x="5" s:y="20" s:pid="out"/>
    <g transform="translate(0,10)" s:x="0" s:y="10" s:pid="in0">
      <text x="-3" y="-4" class="inputPortLabel">0:7</text>
    </g>
    <g transform="translate(0,30)" s:x="0" s:y="10" s:pid="in0">
      <text x="-3" y="-4" class="inputPortLabel">8:15</text>
    </g>
  </g>
  <g s:type="join" transform="translate(203,668.5)" s:width="4" s:height="40" id="cell_$join$,4,5,6,7,">
    <rect width="5" height="40" class="splitjoinBody" s:generic="body"/>
    <s:alias val="$_join_"/>
    <g s:x="5" s:y="20" s:pid="out"/>
    <g transform="translate(0,10)" s:x="0" s:y="10" s:pid="in0">
      <text x="-3" y="-4" class="inputPortLabel">0:1</text>
    </g>
  </g>
  <g s:type="join" transform="translate(105,572)" s:width="4" s:height="40" id="cell_$join$,4,5,">
    <rect width="5" height="40" class="splitjoinBody" s:generic="body"/>
    <s:alias val="$_join_"/>
    <g s:x="5" s:y="20" s:pid="out"/>
    <g transform="translate(0,10)" s:x="0" s:y="10" s:pid="in0">
      <text x="-3" y="-4" class="inputPortLabel">0</text>
    </g>
    <g transform="translate(0,30)" s:x="0" s:y="10" s:pid="in0">
      <text x="-3" y="-4" class="inputPortLabel">1</text>
    </g>
  </g>
  <g s:type="join" transform="translate(200,215.5)" s:width="4" s:height="40" id="cell_$join$,5,6,7,">
    <rect width="5" height="60" class="splitjoinBody" s:generic="body"/>
    <s:alias val="$_join_"/>
    <g s:x="5" s:y="20" s:pid="out"/>
    <g transform="translate(0,10)" s:x="0" s:y="10" s:pid="in0">
      <text x="-3" y="-4" class="inputPortLabel">0</text>
    </g>
    <g transform="translate(0,30)" s:x="0" s:y="10" s:pid="in0">
      <text x="-3" y="-4" class="inputPortLabel">1</text>
    </g>
    <g transform="translate(0,50)" s:x="0" s:y="10" s:pid="in0">
      <text x="-3" y="-4" class="inputPortLabel">2</text>
    </g>
  </g>
  <g s:type="join" transform="translate(575,582)" s:width="4" s:height="40" id="cell_$join$,67,66,">
    <rect width="5" height="40" class="splitjoinBody" s:generic="body"/>
    <s:alias val="$_join_"/>
    <g s:x="5" s:y="20" s:pid="out"/>
    <g transform="translate(0,10)" s:x="0" s:y="10" s:pid="in0">
      <text x="-3" y="-4" class="inputPortLabel">0</text>
    </g>
    <g transform="translate(0,30)" s:x="0" s:y="10" s:pid="in0">
      <text x="-3" y="-4" class="inputPortLabel">1</text>
    </g>
  </g>
  <g s:type="join" transform="translate(575,225.5)" s:width="4" s:height="40" id="cell_$join$,68,69,">
    <rect width="5" height="40" class="splitjoinBody" s:generic="body"/>
    <s:alias val="$_join_"/>
    <g s:x="5" s:y="20" s:pid="out"/>
    <g transform="translate(0,10)" s:x="0" s:y="10" s:pid="in0">
      <text x="-3" y="-4" class="inputPortLabel">0</text>
    </g>
    <g transform="translate(0,30)" s:x="0" s:y="10" s:pid="in0">
      <text x="-3" y="-4" class="inputPortLabel">1</text>
    </g>
  </g>
  <g s:type="split" transform="translate(94,413)" s:width="5" s:height="40" id="cell_$split$,94,95,96,97,98,99,100,101,70,71,72,73,74,75,76,77,">
    <rect width="5" height="40" class="splitjoinBody" s:generic="body"/>
    <s:alias val="$_split_"/>
    <g s:x="0" s:y="20" s:pid="in"/>
    <g transform="translate(4,10)" s:x="4" s:y="10" s:pid="out0">
      <text x="5" y="-4">8:15</text>
    </g>
    <g transform="translate(4,30)" s:x="4" s:y="10" s:pid="out0">
      <text x="5" y="-4">0:7</text>
    </g>
  </g>
  <g s:type="split" transform="translate(184,476)" s:width="5" s:height="40" id="cell_$split$,32,33,34,35,36,37,38,39,40,41,42,43,44,45,46,47,">
    <rect width="5" height="40" class="splitjoinBody" s:generic="body"/>
    <s:alias val="$_split_"/>
    <g s:x="0" s:y="20" s:pid="in"/>
    <g transform="translate(4,10)" s:x="4" s:y="10" s:pid="out0">
      <text x="5" y="-4">8:15</text>
    </g>
    <g transform="translate(4,30)" s:x="4" s:y="10" s:pid="out0">
      <text x="5" y="-4">0:7</text>
    </g>
  </g>
  <line x1="1203" x2="1228" y1="170.5" y2="170.5" class="net_16,17,18,19,20,21,22,23,24,25,26,27,28,29,30,31"/>
  <line x1="1228" x2="1228" y1="170.5" y2="230.5" class="net_16,17,18,19,20,21,22,23,24,25,26,27,28,29,30,31"/>
  <circle cx="1228" cy="170.5" r="2" style="fill:#000" class="net_16,17,18,19,20,21,22,23,24,25,26,27,28,29,30,31"/>
  <line x1="1228" x2="1246" y1="230.5" y2="230.5" class="net_16,17,18,19,20,21,22,23,24,25,26,27,28,29,30,31"/>
  <line x1="1203" x2="1246" y1="170.5" y2="170.5" class="net_16,17,18,19,20,21,22,23,24,25,26,27,28,29,30,31"/>
  <line x1="1203" x2="1228" y1="170.5" y2="170.5" class="net_16,17,18,19,20,21,22,23,24,25,26,27,28,29,30,31"/>
  <line x1="1228" x2="1228" y1="170.5" y2="120.5" class="net_16,17,18,19,20,21,22,23,24,25,26,27,28,29,30,31"/>
  <line x1="1228" x2="1243" y1="120.5" y2="120.5" class="net_16,17,18,19,20,21,22,23,24,25,26,27,28,29,30,31"/>
  <line x1="1208" x2="1246" y1="245.5" y2="245.5" class="net_126,127,128,129,130,131,132,133,134,135,136,137,138,139,140,141"/>
  <line x1="1208" x2="1218" y1="245.5" y2="245.5" class="net_126,127,128,129,130,131,132,133,134,135,136,137,138,139,140,141"/>
  <line x1="1218" x2="1218" y1="245.5" y2="185.5" class="net_126,127,128,129,130,131,132,133,134,135,136,137,138,139,140,141"/>
  <circle cx="1218" cy="245.5" r="2" style="fill:#000" class="net_126,127,128,129,130,131,132,133,134,135,136,137,138,139,140,141"/>
  <line x1="1218" x2="1246" y1="185.5" y2="185.5" class="net_126,127,128,129,130,131,132,133,134,135,136,137,138,139,140,141"/>
  <line x1="672" x2="948" y1="32.5" y2="32.5" class="net_3"/>
  <line x1="948" x2="948" y1="32.5" y2="160.5" class="net_3"/>
  <circle cx="948" cy="32.5" r="2" style="fill:#000" class="net_3"/>
  <line x1="948" x2="993" y1="160.5" y2="160.5" class="net_3"/>
  <line x1="672" x2="993" y1="32.5" y2="32.5" class="net_3"/>
  <line x1="672" x2="993" y1="180.5" y2="180.5" class="net_2"/>
  <line x1="672" x2="928" y1="180.5" y2="180.5" class="net_2"/>
  <line x1="928" x2="928" y1="180.5" y2="52.5" class="net_2"/>
  <circle cx="928" cy="180.5" r="2" style="fill:#000" class="net_2"/>
  <line x1="928" x2="993" y1="52.5" y2="52.5" class="net_2"/>
  <line x1="743" x2="948" y1="313.5" y2="313.5" class="net_48,49,50,51,52,53,54,55"/>
  <line x1="948" x2="948" y1="313.5" y2="200.5" class="net_48,49,50,51,52,53,54,55"/>
  <line x1="948" x2="993" y1="200.5" y2="200.5" class="net_48,49,50,51,52,53,54,55"/>
  <line x1="675" x2="958" y1="602.5" y2="602.5" class="net_56"/>
  <line x1="958" x2="958" y1="602.5" y2="220.5" class="net_56"/>
  <line x1="958" x2="993" y1="220.5" y2="220.5" class="net_56"/>
  <line x1="743" x2="918" y1="97.5" y2="97.5" class="net_57,58,59,60,61,62,63,64"/>
  <line x1="918" x2="918" y1="97.5" y2="72.5" class="net_57,58,59,60,61,62,63,64"/>
  <line x1="918" x2="993" y1="72.5" y2="72.5" class="net_57,58,59,60,61,62,63,64"/>
  <line x1="675" x2="938" y1="246" y2="246" class="net_65"/>
  <line x1="938" x2="938" y1="246" y2="92.5" class="net_65"/>
  <line x1="938" x2="993" y1="92.5" y2="92.5" class="net_65"/>
  <line x1="209" x2="261" y1="689" y2="689" class="net_4,5,6,7"/>
  <line x1="111" x2="261" y1="592.5" y2="592.5" class="net_4,5"/>
  <line x1="111" x2="154" y1="592.5" y2="592.5" class="net_4,5"/>
  <line x1="154" x2="154" y1="592.5" y2="679" class="net_4,5"/>
  <circle cx="154" cy="592.5" r="2" style="fill:#000" class="net_4,5"/>
  <line x1="154" x2="203" y1="679" y2="679" class="net_4,5"/>
  <line x1="214" x2="224" y1="623.5" y2="623.5" class="net_142,143"/>
  <line x1="224" x2="224" y1="623.5" y2="612.5" class="net_142,143"/>
  <line x1="224" x2="261" y1="612.5" y2="612.5" class="net_142,143"/>
  <line x1="206" x2="261" y1="236" y2="236" class="net_5,6,7"/>
  <line x1="40" x2="84" y1="559" y2="559" class="net_4"/>
  <line x1="84" x2="84" y1="559" y2="463" class="net_4"/>
  <line x1="84" x2="224" y1="463" y2="463" class="net_4"/>
  <line x1="224" x2="224" y1="463" y2="293.5" class="net_4"/>
  <circle cx="84" cy="559" r="2" style="fill:#000" class="net_4"/>
  <line x1="224" x2="374.5" y1="293.5" y2="293.5" class="net_4"/>
  <line x1="40" x2="733" y1="559" y2="559" class="net_4"/>
  <line x1="733" x2="733" y1="559" y2="328.5" class="net_4"/>
  <line x1="40" x2="84" y1="559" y2="559" class="net_4"/>
  <line x1="84" x2="84" y1="559" y2="582.5" class="net_4"/>
  <line x1="84" x2="105" y1="582.5" y2="582.5" class="net_4"/>
  <line x1="581" x2="644" y1="602.5" y2="602.5" class="net_67,66"/>
  <line x1="581" x2="644" y1="246" y2="246" class="net_68,69"/>
  <line x1="134" x2="134" y1="376" y2="67.5" class="net_x,x,x,x,x,x,x,x"/>
  <circle cx="134" cy="376" r="2" style="fill:#000" class="net_x,x,x,x,x,x,x,x"/>
  <line x1="134" x2="340" y1="67.5" y2="67.5" class="net_x,x,x,x,x,x,x,x"/>
  <line x1="134" x2="193.66666666666666" y1="376" y2="376" class="net_x,x,x,x,x,x,x,x"/>
  <line x1="134" x2="134" y1="376" y2="537" class="net_x,x,x,x,x,x,x,x"/>
  <line x1="134" x2="535" y1="537" y2="537" class="net_x,x,x,x,x,x,x,x"/>
  <line x1="535" x2="535" y1="537" y2="416" class="net_x,x,x,x,x,x,x,x"/>
  <line x1="535" x2="569.6666666666666" y1="416" y2="416" class="net_x,x,x,x,x,x,x,x"/>
  <line x1="99" x2="144" y1="423.5" y2="423.5" class="net_70,71,72,73,74,75,76,77"/>
  <line x1="144" x2="144" y1="423.5" y2="87.5" class="net_70,71,72,73,74,75,76,77"/>
  <line x1="144" x2="340" y1="87.5" y2="87.5" class="net_70,71,72,73,74,75,76,77"/>
  <line x1="122" x2="164" y1="266" y2="266" class="net_7"/>
  <line x1="164" x2="164" y1="266" y2="107.5" class="net_7"/>
  <line x1="164" x2="350" y1="107.5" y2="107.5" class="net_7"/>
  <circle cx="164" cy="266" r="2" style="fill:#000" class="net_7"/>
  <line x1="350" x2="350" y1="107.5" y2="92.5" class="net_7"/>
  <line x1="122" x2="164" y1="266" y2="266" class="net_7"/>
  <line x1="164" x2="164" y1="266" y2="416" class="net_7"/>
  <line x1="164" x2="203.66666666666666" y1="416" y2="416" class="net_7"/>
  <line x1="203.66666666666666" x2="203.66666666666666" y1="416" y2="401" class="net_7"/>
  <line x1="122" x2="200" y1="266" y2="266" class="net_7"/>
  <line x1="360" x2="569.6666666666666" y1="77.5" y2="77.5" class="net_78,79,80,81,82,83,84,85"/>
  <line x1="189" x2="234" y1="486.5" y2="486.5" class="net_40,41,42,43,44,45,46,47"/>
  <line x1="234" x2="234" y1="486.5" y2="117.5" class="net_40,41,42,43,44,45,46,47"/>
  <line x1="234" x2="535" y1="117.5" y2="117.5" class="net_40,41,42,43,44,45,46,47"/>
  <line x1="535" x2="535" y1="117.5" y2="97.5" class="net_40,41,42,43,44,45,46,47"/>
  <line x1="535" x2="569.6666666666666" y1="97.5" y2="97.5" class="net_40,41,42,43,44,45,46,47"/>
  <line x1="122" x2="154" y1="331" y2="331" class="net_6"/>
  <line x1="154" x2="154" y1="331" y2="128.5" class="net_6"/>
  <line x1="154" x2="579.6666666666666" y1="128.5" y2="128.5" class="net_6"/>
  <circle cx="154" cy="331" r="2" style="fill:#000" class="net_6"/>
  <line x1="579.6666666666666" x2="579.6666666666666" y1="128.5" y2="102.5" class="net_6"/>
  <line x1="122" x2="154" y1="331" y2="331" class="net_6"/>
  <line x1="154" x2="154" y1="331" y2="526" class="net_6"/>
  <line x1="154" x2="350" y1="526" y2="526" class="net_6"/>
  <line x1="350" x2="350" y1="526" y2="411" class="net_6"/>
  <line x1="122" x2="154" y1="331" y2="331" class="net_6"/>
  <line x1="154" x2="154" y1="331" y2="246" class="net_6"/>
  <circle cx="154" cy="246" r="2" style="fill:#000" class="net_6"/>
  <line x1="154" x2="200" y1="246" y2="246" class="net_6"/>
  <line x1="589.6666666666666" x2="723" y1="87.5" y2="87.5" class="net_86,87,88,89,90,91,92,93"/>
  <line x1="588" x2="612" y1="323.5" y2="323.5" class="net_8,9,10,11,12,13,14,15"/>
  <line x1="612" x2="612" y1="323.5" y2="107.5" class="net_8,9,10,11,12,13,14,15"/>
  <circle cx="612" cy="323.5" r="2" style="fill:#000" class="net_8,9,10,11,12,13,14,15"/>
  <line x1="612" x2="723" y1="107.5" y2="107.5" class="net_8,9,10,11,12,13,14,15"/>
  <line x1="588" x2="723" y1="323.5" y2="323.5" class="net_8,9,10,11,12,13,14,15"/>
  <line x1="40" x2="733" y1="139.5" y2="139.5" class="net_5"/>
  <line x1="733" x2="733" y1="139.5" y2="112.5" class="net_5"/>
  <line x1="40" x2="74" y1="139.5" y2="139.5" class="net_5"/>
  <line x1="74" x2="74" y1="139.5" y2="548" class="net_5"/>
  <line x1="74" x2="579.6666666666666" y1="548" y2="548" class="net_5"/>
  <circle cx="74" cy="139.5" r="2" style="fill:#000" class="net_5"/>
  <circle cx="74" cy="548" r="2" style="fill:#000" class="net_5"/>
  <line x1="579.6666666666666" x2="579.6666666666666" y1="548" y2="421" class="net_5"/>
  <line x1="40" x2="74" y1="139.5" y2="139.5" class="net_5"/>
  <line x1="74" x2="74" y1="139.5" y2="602.5" class="net_5"/>
  <line x1="74" x2="105" y1="602.5" y2="602.5" class="net_5"/>
  <line x1="40" x2="174" y1="139.5" y2="139.5" class="net_5"/>
  <line x1="174" x2="174" y1="139.5" y2="226" class="net_5"/>
  <circle cx="174" cy="139.5" r="2" style="fill:#000" class="net_5"/>
  <line x1="174" x2="200" y1="226" y2="226" class="net_5"/>
  <line x1="99" x2="174" y1="443.5" y2="443.5" class="net_94,95,96,97,98,99,100,101"/>
  <line x1="174" x2="174" y1="443.5" y2="396" class="net_94,95,96,97,98,99,100,101"/>
  <line x1="174" x2="193.66666666666666" y1="396" y2="396" class="net_94,95,96,97,98,99,100,101"/>
  <line x1="213.66666666666666" x2="340" y1="386" y2="386" class="net_102,103,104,105,106,107,108,109"/>
  <line x1="189" x2="244" y1="506.5" y2="506.5" class="net_32,33,34,35,36,37,38,39"/>
  <line x1="244" x2="244" y1="506.5" y2="406" class="net_32,33,34,35,36,37,38,39"/>
  <line x1="244" x2="340" y1="406" y2="406" class="net_32,33,34,35,36,37,38,39"/>
  <line x1="360" x2="569.6666666666666" y1="396" y2="396" class="net_110,111,112,113,114,115,116,117"/>
  <line x1="589.6666666666666" x2="622" y1="406" y2="406" class="net_118,119,120,121,122,123,124,125"/>
  <line x1="622" x2="622" y1="406" y2="303.5" class="net_118,119,120,121,122,123,124,125"/>
  <line x1="622" x2="723" y1="303.5" y2="303.5" class="net_118,119,120,121,122,123,124,125"/>
  <line x1="1024" x2="1153" y1="160.5" y2="160.5" class="net_16,17,18,19,20,21,22,23"/>
  <line x1="1153" x2="1153" y1="160.5" y2="305.5" class="net_16,17,18,19,20,21,22,23"/>
  <circle cx="1153" cy="160.5" r="2" style="fill:#000" class="net_16,17,18,19,20,21,22,23"/>
  <line x1="1153" x2="1243" y1="305.5" y2="305.5" class="net_16,17,18,19,20,21,22,23"/>
  <line x1="1024" x2="1197" y1="160.5" y2="160.5" class="net_16,17,18,19,20,21,22,23"/>
  <line x1="1024" x2="1243" y1="32.5" y2="32.5" class="net_24,25,26,27,28,29,30,31"/>
  <line x1="1024" x2="1163" y1="32.5" y2="32.5" class="net_24,25,26,27,28,29,30,31"/>
  <line x1="1163" x2="1163" y1="32.5" y2="180.5" class="net_24,25,26,27,28,29,30,31"/>
  <circle cx="1163" cy="32.5" r="2" style="fill:#000" class="net_24,25,26,27,28,29,30,31"/>
  <line x1="1163" x2="1197" y1="180.5" y2="180.5" class="net_24,25,26,27,28,29,30,31"/>
  <line x1="292" x2="575" y1="592.5" y2="592.5" class="net_67"/>
  <line x1="292" x2="535" y1="689" y2="689" class="net_66"/>
  <line x1="535" x2="535" y1="689" y2="612.5" class="net_66"/>
  <line x1="535" x2="575" y1="612.5" y2="612.5" class="net_66"/>
  <line x1="292" x2="575" y1="236" y2="236" class="net_68"/>
  <line x1="399.5" x2="535" y1="293.5" y2="293.5" class="net_69"/>
  <line x1="535" x2="535" y1="293.5" y2="256" class="net_69"/>
  <line x1="535" x2="575" y1="256" y2="256" class="net_69"/>
  <line x1="1268" x2="1305" y1="178" y2="178" class="net_94,95,96,97,98,99,100,101,70,71,72,73,74,75,76,77"/>
  <line x1="1305" x2="1305" y1="178" y2="729.5" class="net_94,95,96,97,98,99,100,101,70,71,72,73,74,75,76,77"/>
  <line x1="1305" x2="64" y1="729.5" y2="729.5" class="net_94,95,96,97,98,99,100,101,70,71,72,73,74,75,76,77"/>
  <line x1="64" x2="64" y1="729.5" y2="433.5" class="net_94,95,96,97,98,99,100,101,70,71,72,73,74,75,76,77"/>
  <line x1="64" x2="94" y1="433.5" y2="433.5" class="net_94,95,96,97,98,99,100,101,70,71,72,73,74,75,76,77"/>
  <line x1="1268" x2="1295" y1="238" y2="238" class="net_32,33,34,35,36,37,38,39,40,41,42,43,44,45,46,47"/>
  <line x1="1295" x2="1295" y1="238" y2="718.5" class="net_32,33,34,35,36,37,38,39,40,41,42,43,44,45,46,47"/>
  <line x1="1295" x2="144" y1="718.5" y2="718.5" class="net_32,33,34,35,36,37,38,39,40,41,42,43,44,45,46,47"/>
  <line x1="144" x2="144" y1="718.5" y2="496.5" class="net_32,33,34,35,36,37,38,39,40,41,42,43,44,45,46,47"/>
  <line x1="144" x2="184" y1="496.5" y2="496.5" class="net_32,33,34,35,36,37,38,39,40,41,42,43,44,45,46,47"/>
</svg>
