<svg xmlns="http://www.w3.org/2000/svg" xmlns:xlink="http://www.w3.org/1999/xlink" xmlns:s="https://github.com/nturley/netlistsvg" width="633" height="1137">
  <style>svg {
    stroke:#000;
    fill:none;
  }
  text {
    fill:#000;
    stroke:none;
    font-size:10px;
    font-weight: bold;
    font-family: "Courier New", monospace;
  }
  .nodelabel {
    text-anchor: middle;
  }
  .inputPortLabel {
    text-anchor: end;
  }
  .splitjoinBody {
    fill:#000;
  }</style>
  <g s:type="add" transform="translate(161.66666666666666,429)" s:width="25" s:height="25" id="cell_$add$/home/jo/kiro/RV8/rv8_cpu.v:21$3">
    <s:alias val="$add"/>
    <circle r="12.5" cx="12.5" cy="12.5" class="cell_$add$/home/jo/kiro/RV8/rv8_cpu.v:21$3"/>
    <line x1="7.5" x2="17.5" y1="12.5" y2="12.5" class="cell_$add$/home/jo/kiro/RV8/rv8_cpu.v:21$3"/>
    <line x1="12.5" x2="12.5" y1="7.5" y2="17.5" class="cell_$add$/home/jo/kiro/RV8/rv8_cpu.v:21$3"/>
    <g s:x="3" s:y="5" s:pid="A"/>
    <g s:x="3" s:y="20" s:pid="B"/>
    <g s:x="25" s:y="12.5" s:pid="Y"/>
  </g>
  <g s:type="add" transform="translate(227.66666666666666,444)" s:width="25" s:height="25" id="cell_$add$/home/jo/kiro/RV8/rv8_cpu.v:21$4">
    <s:alias val="$add"/>
    <circle r="12.5" cx="12.5" cy="12.5" class="cell_$add$/home/jo/kiro/RV8/rv8_cpu.v:21$4"/>
    <line x1="7.5" x2="17.5" y1="12.5" y2="12.5" class="cell_$add$/home/jo/kiro/RV8/rv8_cpu.v:21$4"/>
    <line x1="12.5" x2="12.5" y1="7.5" y2="17.5" class="cell_$add$/home/jo/kiro/RV8/rv8_cpu.v:21$4"/>
    <g s:x="3" s:y="5" s:pid="A"/>
    <g s:x="3" s:y="20" s:pid="B"/>
    <g s:x="25" s:y="12.5" s:pid="Y"/>
  </g>
  <g s:type="and" transform="translate(226,339.5)" s:width="30" s:height="25" id="cell_$and$/home/jo/kiro/RV8/rv8_cpu.v:23$9">
    <s:alias val="$and"/>
    <s:alias val="$logic_and"/>
    <s:alias val="$_AND_"/>
    <path d="M0,0 L0,25 L15,25 A15 12.5 0 0 0 15,0 Z" class="cell_$and$/home/jo/kiro/RV8/rv8_cpu.v:23$9"/>
    <g s:x="0" s:y="5" s:pid="A"/>
    <g s:x="0" s:y="20" s:pid="B"/>
    <g s:x="30" s:y="12.5" s:pid="Y"/>
  </g>
  <g s:type="not" transform="translate(502,87)" s:width="30" s:height="20" id="cell_$eq$/home/jo/kiro/RV8/rv8_cpu.v:34$12">
    <s:alias val="$_NOT_"/>
    <s:alias val="$not"/>
    <s:alias val="$logic_not"/>
    <path d="M0,0 L0,20 L20,10 Z" class="cell_$eq$/home/jo/kiro/RV8/rv8_cpu.v:34$12"/>
    <circle cx="23" cy="10" r="3" class="cell_$eq$/home/jo/kiro/RV8/rv8_cpu.v:34$12"/>
    <g s:x="0" s:y="10" s:pid="A"/>
    <g s:x="25" s:y="10" s:pid="Y"/>
  </g>
  <g s:type="not" transform="translate(160,535)" s:width="30" s:height="20" id="cell_$not$/home/jo/kiro/RV8/rv8_cpu.v:22$7">
    <s:alias val="$_NOT_"/>
    <s:alias val="$not"/>
    <s:alias val="$logic_not"/>
    <path d="M0,0 L0,20 L20,10 Z" class="cell_$not$/home/jo/kiro/RV8/rv8_cpu.v:22$7"/>
    <circle cx="23" cy="10" r="3" class="cell_$not$/home/jo/kiro/RV8/rv8_cpu.v:22$7"/>
    <g s:x="0" s:y="10" s:pid="A"/>
    <g s:x="25" s:y="10" s:pid="Y"/>
  </g>
  <g s:type="or" transform="translate(226,279.5)" s:width="30" s:height="25" id="cell_$or$/home/jo/kiro/RV8/rv8_cpu.v:24$10">
    <s:alias val="$or"/>
    <s:alias val="$logic_or"/>
    <s:alias val="$_OR_"/>
    <path d="M0,25 L0,25 L15,25 A15 12.5 0 0 0 15,0 L0,0" class="cell_$or$/home/jo/kiro/RV8/rv8_cpu.v:24$10"/>
    <path d="M0,0 A30 25 0 0 1 0,25" class="cell_$or$/home/jo/kiro/RV8/rv8_cpu.v:24$10"/>
    <g s:x="3" s:y="5" s:pid="A"/>
    <g s:x="3" s:y="20" s:pid="B"/>
    <g s:x="30" s:y="12.5" s:pid="Y"/>
  </g>
  <g s:type="mux" transform="translate(388,132)" s:width="20" s:height="40" id="cell_$procmux$132">
    <s:alias val="$pmux"/>
    <s:alias val="$mux"/>
    <s:alias val="$_MUX_"/>
    <path d="M0,0 L20,10 L20,30 L0,40 Z" class="cell_$procmux$132"/>
    <g s:x="0" s:y="10" s:pid="A"/>
    <g s:x="0" s:y="30" s:pid="B"/>
    <g s:x="10" s:y="35" s:pid="S"/>
    <g s:x="20" s:y="20" s:pid="Y"/>
  </g>
  <g s:type="eq" transform="translate(227.66666666666666,590)" s:width="25" s:height="25" id="cell_$procmux$133_CMP0">
    <s:alias val="$eq"/>
    <circle r="12.5" cx="12.5" cy="12.5" class="cell_$procmux$133_CMP0"/>
    <line x1="7.5" x2="17.5" y1="10" y2="10" class="cell_$procmux$133_CMP0"/>
    <line x1="7.5" x2="17.5" y1="15" y2="15" class="cell_$procmux$133_CMP0"/>
    <g s:x="3" s:y="5" s:pid="A"/>
    <g s:x="3" s:y="20" s:pid="B"/>
    <g s:x="25" s:y="12.5" s:pid="Y"/>
  </g>
  <g s:type="eq" transform="translate(227.66666666666666,655)" s:width="25" s:height="25" id="cell_$procmux$134_CMP0">
    <s:alias val="$eq"/>
    <circle r="12.5" cx="12.5" cy="12.5" class="cell_$procmux$134_CMP0"/>
    <line x1="7.5" x2="17.5" y1="10" y2="10" class="cell_$procmux$134_CMP0"/>
    <line x1="7.5" x2="17.5" y1="15" y2="15" class="cell_$procmux$134_CMP0"/>
    <g s:x="3" s:y="5" s:pid="A"/>
    <g s:x="3" s:y="20" s:pid="B"/>
    <g s:x="25" s:y="12.5" s:pid="Y"/>
  </g>
  <g s:type="eq" transform="translate(227.66666666666666,720)" s:width="25" s:height="25" id="cell_$procmux$135_CMP0">
    <s:alias val="$eq"/>
    <circle r="12.5" cx="12.5" cy="12.5" class="cell_$procmux$135_CMP0"/>
    <line x1="7.5" x2="17.5" y1="10" y2="10" class="cell_$procmux$135_CMP0"/>
    <line x1="7.5" x2="17.5" y1="15" y2="15" class="cell_$procmux$135_CMP0"/>
    <g s:x="3" s:y="5" s:pid="A"/>
    <g s:x="3" s:y="20" s:pid="B"/>
    <g s:x="25" s:y="12.5" s:pid="Y"/>
  </g>
  <g s:type="eq" transform="translate(227.66666666666666,850)" s:width="25" s:height="25" id="cell_$procmux$136_CMP0">
    <s:alias val="$eq"/>
    <circle r="12.5" cx="12.5" cy="12.5" class="cell_$procmux$136_CMP0"/>
    <line x1="7.5" x2="17.5" y1="10" y2="10" class="cell_$procmux$136_CMP0"/>
    <line x1="7.5" x2="17.5" y1="15" y2="15" class="cell_$procmux$136_CMP0"/>
    <g s:x="3" s:y="5" s:pid="A"/>
    <g s:x="3" s:y="20" s:pid="B"/>
    <g s:x="25" s:y="12.5" s:pid="Y"/>
  </g>
  <g s:type="eq" transform="translate(227.66666666666666,915)" s:width="25" s:height="25" id="cell_$procmux$137_CMP0">
    <s:alias val="$eq"/>
    <circle r="12.5" cx="12.5" cy="12.5" class="cell_$procmux$137_CMP0"/>
    <line x1="7.5" x2="17.5" y1="10" y2="10" class="cell_$procmux$137_CMP0"/>
    <line x1="7.5" x2="17.5" y1="15" y2="15" class="cell_$procmux$137_CMP0"/>
    <g s:x="3" s:y="5" s:pid="A"/>
    <g s:x="3" s:y="20" s:pid="B"/>
    <g s:x="25" s:y="12.5" s:pid="Y"/>
  </g>
  <g s:type="eq" transform="translate(227.66666666666666,980)" s:width="25" s:height="25" id="cell_$procmux$138_CMP0">
    <s:alias val="$eq"/>
    <circle r="12.5" cx="12.5" cy="12.5" class="cell_$procmux$138_CMP0"/>
    <line x1="7.5" x2="17.5" y1="10" y2="10" class="cell_$procmux$138_CMP0"/>
    <line x1="7.5" x2="17.5" y1="15" y2="15" class="cell_$procmux$138_CMP0"/>
    <g s:x="3" s:y="5" s:pid="A"/>
    <g s:x="3" s:y="20" s:pid="B"/>
    <g s:x="25" s:y="12.5" s:pid="Y"/>
  </g>
  <g s:type="eq" transform="translate(227.66666666666666,1045)" s:width="25" s:height="25" id="cell_$procmux$139_CMP0">
    <s:alias val="$eq"/>
    <circle r="12.5" cx="12.5" cy="12.5" class="cell_$procmux$139_CMP0"/>
    <line x1="7.5" x2="17.5" y1="10" y2="10" class="cell_$procmux$139_CMP0"/>
    <line x1="7.5" x2="17.5" y1="15" y2="15" class="cell_$procmux$139_CMP0"/>
    <g s:x="3" s:y="5" s:pid="A"/>
    <g s:x="3" s:y="20" s:pid="B"/>
    <g s:x="25" s:y="12.5" s:pid="Y"/>
  </g>
  <g s:type="not" transform="translate(226.5,1105)" s:width="30" s:height="20" id="cell_$procmux$140_CMP0">
    <s:alias val="$_NOT_"/>
    <s:alias val="$not"/>
    <s:alias val="$logic_not"/>
    <path d="M0,0 L0,20 L20,10 Z" class="cell_$procmux$140_CMP0"/>
    <circle cx="23" cy="10" r="3" class="cell_$procmux$140_CMP0"/>
    <g s:x="0" s:y="10" s:pid="A"/>
    <g s:x="25" s:y="10" s:pid="Y"/>
  </g>
  <g s:type="sub" transform="translate(161.66666666666666,475)" s:width="25" s:height="25" id="cell_$sub$/home/jo/kiro/RV8/rv8_cpu.v:22$5">
    <s:alias val="$sub"/>
    <circle r="12.5" cx="12.5" cy="12.5" class="cell_$sub$/home/jo/kiro/RV8/rv8_cpu.v:22$5"/>
    <line x1="7.5" x2="17.5" y1="12.5" y2="12.5" class="cell_$sub$/home/jo/kiro/RV8/rv8_cpu.v:22$5"/>
    <g s:x="3" s:y="5" s:pid="A"/>
    <g s:x="3" s:y="20" s:pid="B"/>
    <g s:x="25" s:y="12.5" s:pid="Y"/>
  </g>
  <g s:type="sub" transform="translate(227.66666666666666,525)" s:width="25" s:height="25" id="cell_$sub$/home/jo/kiro/RV8/rv8_cpu.v:22$8">
    <s:alias val="$sub"/>
    <circle r="12.5" cx="12.5" cy="12.5" class="cell_$sub$/home/jo/kiro/RV8/rv8_cpu.v:22$8"/>
    <line x1="7.5" x2="17.5" y1="12.5" y2="12.5" class="cell_$sub$/home/jo/kiro/RV8/rv8_cpu.v:22$8"/>
    <g s:x="3" s:y="5" s:pid="A"/>
    <g s:x="3" s:y="20" s:pid="B"/>
    <g s:x="25" s:y="12.5" s:pid="Y"/>
  </g>
  <g s:type="reduce_xor" transform="translate(225,152)" s:width="33" s:height="25" id="cell_$xor$/home/jo/kiro/RV8/rv8_cpu.v:25$11">
    <s:alias val="$xor"/>
    <s:alias val="$reduce_xor"/>
    <s:alias val="$_XOR_"/>
    <path d="M3,0 A30 25 0 0 1 3,25 A30 25 0 0 0 33,12.5 A30 25 0 0 0 3,0" class="cell_$xor$/home/jo/kiro/RV8/rv8_cpu.v:25$11"/>
    <path d="M0,0 A30 25 0 0 1 0,25" class="cell_$xor$/home/jo/kiro/RV8/rv8_cpu.v:25$11"/>
    <g s:x="3" s:y="5" s:pid="A"/>
    <g s:x="3" s:y="20" s:pid="B"/>
    <g s:x="33" s:y="12.5" s:pid="Y"/>
  </g>
  <g s:type="inputExt" transform="translate(95,274.5)" s:width="30" s:height="20" id="cell_a">
    <text x="15" y="-4" class="nodelabel cell_a" s:attribute="ref">a</text>
    <s:alias val="$_inputExt_"/>
    <path d="M0,0 L0,20 L15,20 L30,10 L15,0 Z" class="cell_a"/>
    <g s:x="28" s:y="10" s:pid="Y"/>
  </g>
  <g s:type="inputExt" transform="translate(95,349.5)" s:width="30" s:height="20" id="cell_b">
    <text x="15" y="-4" class="nodelabel cell_b" s:attribute="ref">b</text>
    <s:alias val="$_inputExt_"/>
    <path d="M0,0 L0,20 L15,20 L30,10 L15,0 Z" class="cell_b"/>
    <g s:x="28" s:y="10" s:pid="Y"/>
  </g>
  <g s:type="inputExt" transform="translate(160,795)" s:width="30" s:height="20" id="cell_op">
    <text x="15" y="-4" class="nodelabel cell_op" s:attribute="ref">op</text>
    <s:alias val="$_inputExt_"/>
    <path d="M0,0 L0,20 L15,20 L30,10 L15,0 Z" class="cell_op"/>
    <g s:x="28" s:y="10" s:pid="Y"/>
  </g>
  <g s:type="inputExt" transform="translate(12,454)" s:width="30" s:height="20" id="cell_carry_in">
    <text x="15" y="-4" class="nodelabel cell_carry_in" s:attribute="ref">carry_in</text>
    <s:alias val="$_inputExt_"/>
    <path d="M0,0 L0,20 L15,20 L30,10 L15,0 Z" class="cell_carry_in"/>
    <g s:x="28" s:y="10" s:pid="Y"/>
  </g>
  <g s:type="outputExt" transform="translate(567,22)" s:width="30" s:height="20" id="cell_result">
    <text x="15" y="-4" class="nodelabel cell_result" s:attribute="ref">result</text>
    <s:alias val="$_outputExt_"/>
    <path d="M30,0 L30,20 L15,20 L0,10 L15,0 Z" class="cell_result"/>
    <g s:x="0" s:y="10" s:pid="A"/>
  </g>
  <g s:type="outputExt" transform="translate(567,152)" s:width="30" s:height="20" id="cell_carry_out">
    <text x="15" y="-4" class="nodelabel cell_carry_out" s:attribute="ref">carry_out</text>
    <s:alias val="$_outputExt_"/>
    <path d="M30,0 L30,20 L15,20 L0,10 L15,0 Z" class="cell_carry_out"/>
    <g s:x="0" s:y="10" s:pid="A"/>
  </g>
  <g s:type="outputExt" transform="translate(567,87)" s:width="30" s:height="20" id="cell_zero">
    <text x="15" y="-4" class="nodelabel cell_zero" s:attribute="ref">zero</text>
    <s:alias val="$_outputExt_"/>
    <path d="M30,0 L30,20 L15,20 L0,10 L15,0 Z" class="cell_zero"/>
    <g s:x="0" s:y="10" s:pid="A"/>
  </g>
  <g s:type="outputExt" transform="translate(567,217)" s:width="30" s:height="20" id="cell_negative">
    <text x="15" y="-4" class="nodelabel cell_negative" s:attribute="ref">negative</text>
    <s:alias val="$_outputExt_"/>
    <path d="M30,0 L30,20 L15,20 L0,10 L15,0 Z" class="cell_negative"/>
    <g s:x="0" s:y="10" s:pid="A"/>
  </g>
  <g s:type="constant" transform="translate(12,545)" s:width="30" s:height="20" id="cell_00000000">
    <text x="15" y="-4" class="nodelabel cell_00000000" s:attribute="ref">0x0</text>
    <s:alias val="$_constant_"/>
    <rect width="30" height="20" class="cell_00000000"/>
    <g s:x="30" s:y="10" s:pid="Y"/>
  </g>
  <g s:type="constant" transform="translate(225,23)" s:width="30" s:height="20" id="cell_00">
    <text x="15" y="-4" class="nodelabel cell_00" s:attribute="ref">00</text>
    <s:alias val="$_constant_"/>
    <rect width="30" height="20" class="cell_00"/>
    <g s:x="30" s:y="10" s:pid="Y"/>
  </g>
  <g s:type="constant" transform="translate(225,222)" s:width="30" s:height="20" id="cell_0">
    <text x="15" y="-4" class="nodelabel cell_0" s:attribute="ref">0</text>
    <s:alias val="$_constant_"/>
    <rect width="30" height="20" class="cell_0"/>
    <g s:x="30" s:y="10" s:pid="Y"/>
  </g>
  <g s:type="constant" transform="translate(160,600)" s:width="30" s:height="20" id="cell_111">
    <text x="15" y="-4" class="nodelabel cell_111" s:attribute="ref">111</text>
    <s:alias val="$_constant_"/>
    <rect width="30" height="20" class="cell_111"/>
    <g s:x="30" s:y="10" s:pid="Y"/>
  </g>
  <g s:type="constant" transform="translate(160,665)" s:width="30" s:height="20" id="cell_110">
    <text x="15" y="-4" class="nodelabel cell_110" s:attribute="ref">110</text>
    <s:alias val="$_constant_"/>
    <rect width="30" height="20" class="cell_110"/>
    <g s:x="30" s:y="10" s:pid="Y"/>
  </g>
  <g s:type="constant" transform="translate(160,730)" s:width="30" s:height="20" id="cell_101">
    <text x="15" y="-4" class="nodelabel cell_101" s:attribute="ref">101</text>
    <s:alias val="$_constant_"/>
    <rect width="30" height="20" class="cell_101"/>
    <g s:x="30" s:y="10" s:pid="Y"/>
  </g>
  <g s:type="constant" transform="translate(160,860)" s:width="30" s:height="20" id="cell_100">
    <text x="15" y="-4" class="nodelabel cell_100" s:attribute="ref">100</text>
    <s:alias val="$_constant_"/>
    <rect width="30" height="20" class="cell_100"/>
    <g s:x="30" s:y="10" s:pid="Y"/>
  </g>
  <g s:type="constant" transform="translate(160,925)" s:width="30" s:height="20" id="cell_011">
    <text x="15" y="-4" class="nodelabel cell_011" s:attribute="ref">011</text>
    <s:alias val="$_constant_"/>
    <rect width="30" height="20" class="cell_011"/>
    <g s:x="30" s:y="10" s:pid="Y"/>
  </g>
  <g s:type="constant" transform="translate(160,990)" s:width="30" s:height="20" id="cell_010">
    <text x="15" y="-4" class="nodelabel cell_010" s:attribute="ref">010</text>
    <s:alias val="$_constant_"/>
    <rect width="30" height="20" class="cell_010"/>
    <g s:x="30" s:y="10" s:pid="Y"/>
  </g>
  <g s:type="constant" transform="translate(160,1055)" s:width="30" s:height="20" id="cell_001">
    <text x="15" y="-4" class="nodelabel cell_001" s:attribute="ref">001</text>
    <s:alias val="$_constant_"/>
    <rect width="30" height="20" class="cell_001"/>
    <g s:x="30" s:y="10" s:pid="Y"/>
  </g>
  <g s:type="join" transform="translate(106,524.5)" s:width="4" s:height="40" id="cell_$join$,21,109,110,111,112,113,114,115,116,">
    <rect width="5" height="40" class="splitjoinBody" s:generic="body"/>
    <s:alias val="$_join_"/>
    <g s:x="5" s:y="20" s:pid="out"/>
    <g transform="translate(0,10)" s:x="0" s:y="10" s:pid="in0">
      <text x="-3" y="-4" class="inputPortLabel">0</text>
    </g>
    <g transform="translate(0,30)" s:x="0" s:y="10" s:pid="in0">
      <text x="-3" y="-4" class="inputPortLabel">1:8</text>
    </g>
  </g>
  <g s:type="join" transform="translate(347,141.5)" s:width="4" s:height="40" id="cell_$join$,10,11,12,13,14,15,16,17,117,118,2,3,4,5,6,7,8,9,3,4,5,6,7,8,9,119,2,75,76,77,78,79,80,81,82,119,67,68,69,70,71,72,73,74,119,50,51,52,53,54,55,56,57,119,83,84,85,86,87,88,89,90,91,41,42,43,44,45,46,47,48,49,">
    <rect width="5" height="280" class="splitjoinBody" s:generic="body"/>
    <s:alias val="$_join_"/>
    <g s:x="5" s:y="20" s:pid="out"/>
    <g transform="translate(0,10)" s:x="0" s:y="10" s:pid="in0">
      <text x="-3" y="-4" class="inputPortLabel">0:7</text>
    </g>
    <g transform="translate(0,30)" s:x="0" s:y="10" s:pid="in0">
      <text x="-3" y="-4" class="inputPortLabel">8:9</text>
    </g>
    <g transform="translate(0,50)" s:x="0" s:y="10" s:pid="in0">
      <text x="-3" y="-4" class="inputPortLabel">10:17</text>
    </g>
    <g transform="translate(0,70)" s:x="0" s:y="10" s:pid="in0">
      <text x="-3" y="-4" class="inputPortLabel">18:24</text>
    </g>
    <g transform="translate(0,90)" s:x="0" s:y="10" s:pid="in0">
      <text x="-3" y="-4" class="inputPortLabel">25</text>
    </g>
    <g transform="translate(0,110)" s:x="0" s:y="10" s:pid="in0">
      <text x="-3" y="-4" class="inputPortLabel">26</text>
    </g>
    <g transform="translate(0,130)" s:x="0" s:y="10" s:pid="in0">
      <text x="-3" y="-4" class="inputPortLabel">27:34</text>
    </g>
    <g transform="translate(0,150)" s:x="0" s:y="10" s:pid="in0">
      <text x="-3" y="-4" class="inputPortLabel">35</text>
    </g>
    <g transform="translate(0,170)" s:x="0" s:y="10" s:pid="in0">
      <text x="-3" y="-4" class="inputPortLabel">36:43</text>
    </g>
    <g transform="translate(0,190)" s:x="0" s:y="10" s:pid="in0">
      <text x="-3" y="-4" class="inputPortLabel">44</text>
    </g>
    <g transform="translate(0,210)" s:x="0" s:y="10" s:pid="in0">
      <text x="-3" y="-4" class="inputPortLabel">45:52</text>
    </g>
    <g transform="translate(0,230)" s:x="0" s:y="10" s:pid="in0">
      <text x="-3" y="-4" class="inputPortLabel">53</text>
    </g>
    <g transform="translate(0,250)" s:x="0" s:y="10" s:pid="in0">
      <text x="-3" y="-4" class="inputPortLabel">54:62</text>
    </g>
    <g transform="translate(0,270)" s:x="0" s:y="10" s:pid="in0">
      <text x="-3" y="-4" class="inputPortLabel">63:71</text>
    </g>
  </g>
  <g s:type="join" transform="translate(344.57142857142856,927)" s:width="4" s:height="40" id="cell_$join$,92,93,94,95,96,97,98,99,">
    <rect width="5" height="160" class="splitjoinBody" s:generic="body"/>
    <s:alias val="$_join_"/>
    <g s:x="5" s:y="20" s:pid="out"/>
    <g transform="translate(0,10)" s:x="0" s:y="10" s:pid="in0">
      <text x="-3" y="-4" class="inputPortLabel">0</text>
    </g>
    <g transform="translate(0,30)" s:x="0" s:y="10" s:pid="in0">
      <text x="-3" y="-4" class="inputPortLabel">1</text>
    </g>
    <g transform="translate(0,50)" s:x="0" s:y="10" s:pid="in0">
      <text x="-3" y="-4" class="inputPortLabel">2</text>
    </g>
    <g transform="translate(0,70)" s:x="0" s:y="10" s:pid="in0">
      <text x="-3" y="-4" class="inputPortLabel">3</text>
    </g>
    <g transform="translate(0,90)" s:x="0" s:y="10" s:pid="in0">
      <text x="-3" y="-4" class="inputPortLabel">4</text>
    </g>
    <g transform="translate(0,110)" s:x="0" s:y="10" s:pid="in0">
      <text x="-3" y="-4" class="inputPortLabel">5</text>
    </g>
    <g transform="translate(0,130)" s:x="0" s:y="10" s:pid="in0">
      <text x="-3" y="-4" class="inputPortLabel">6</text>
    </g>
    <g transform="translate(0,150)" s:x="0" s:y="10" s:pid="in0">
      <text x="-3" y="-4" class="inputPortLabel">7</text>
    </g>
  </g>
  <g s:type="split" transform="translate(443,131.5)" s:width="5" s:height="40" id="cell_$split$,22,23,24,25,26,27,28,29,30,">
    <rect width="5" height="60" class="splitjoinBody" s:generic="body"/>
    <s:alias val="$_split_"/>
    <g s:x="0" s:y="20" s:pid="in"/>
    <g transform="translate(4,10)" s:x="4" s:y="10" s:pid="out0">
      <text x="5" y="-4">0:7</text>
    </g>
    <g transform="translate(4,30)" s:x="4" s:y="10" s:pid="out0">
      <text x="5" y="-4">8</text>
    </g>
    <g transform="translate(4,50)" s:x="4" s:y="10" s:pid="out0">
      <text x="5" y="-4">7</text>
    </g>
  </g>
  <g s:type="split" transform="translate(234,77)" s:width="5" s:height="40" id="cell_$split$,2,3,4,5,6,7,8,9,">
    <rect width="5" height="40" class="splitjoinBody" s:generic="body"/>
    <s:alias val="$_split_"/>
    <g s:x="0" s:y="20" s:pid="in"/>
    <g transform="translate(4,10)" s:x="4" s:y="10" s:pid="out0">
      <text x="5" y="-4">1:7</text>
    </g>
    <g transform="translate(4,30)" s:x="4" s:y="10" s:pid="out0">
      <text x="5" y="-4">0</text>
    </g>
  </g>
  <line x1="123" x2="145" y1="284.5" y2="284.5" class="net_2,3,4,5,6,7,8,9"/>
  <line x1="145" x2="145" y1="284.5" y2="434" class="net_2,3,4,5,6,7,8,9"/>
  <circle cx="145" cy="284.5" r="2" style="fill:#000" class="net_2,3,4,5,6,7,8,9"/>
  <circle cx="145" cy="434" r="2" style="fill:#000" class="net_2,3,4,5,6,7,8,9"/>
  <line x1="145" x2="164.66666666666666" y1="434" y2="434" class="net_2,3,4,5,6,7,8,9"/>
  <line x1="123" x2="145" y1="284.5" y2="284.5" class="net_2,3,4,5,6,7,8,9"/>
  <line x1="145" x2="145" y1="284.5" y2="344.5" class="net_2,3,4,5,6,7,8,9"/>
  <circle cx="145" cy="344.5" r="2" style="fill:#000" class="net_2,3,4,5,6,7,8,9"/>
  <line x1="145" x2="226" y1="344.5" y2="344.5" class="net_2,3,4,5,6,7,8,9"/>
  <line x1="123" x2="229" y1="284.5" y2="284.5" class="net_2,3,4,5,6,7,8,9"/>
  <line x1="123" x2="145" y1="284.5" y2="284.5" class="net_2,3,4,5,6,7,8,9"/>
  <line x1="145" x2="145" y1="284.5" y2="480" class="net_2,3,4,5,6,7,8,9"/>
  <line x1="145" x2="164.66666666666666" y1="480" y2="480" class="net_2,3,4,5,6,7,8,9"/>
  <line x1="123" x2="145" y1="284.5" y2="284.5" class="net_2,3,4,5,6,7,8,9"/>
  <line x1="145" x2="145" y1="284.5" y2="97.5" class="net_2,3,4,5,6,7,8,9"/>
  <line x1="145" x2="200" y1="97.5" y2="97.5" class="net_2,3,4,5,6,7,8,9"/>
  <line x1="200" x2="200" y1="97.5" y2="157" class="net_2,3,4,5,6,7,8,9"/>
  <line x1="200" x2="228" y1="157" y2="157" class="net_2,3,4,5,6,7,8,9"/>
  <line x1="123" x2="145" y1="284.5" y2="284.5" class="net_2,3,4,5,6,7,8,9"/>
  <line x1="145" x2="145" y1="284.5" y2="97.5" class="net_2,3,4,5,6,7,8,9"/>
  <line x1="145" x2="200" y1="97.5" y2="97.5" class="net_2,3,4,5,6,7,8,9"/>
  <line x1="200" x2="200" y1="97.5" y2="64" class="net_2,3,4,5,6,7,8,9"/>
  <line x1="200" x2="318" y1="64" y2="64" class="net_2,3,4,5,6,7,8,9"/>
  <line x1="318" x2="318" y1="64" y2="192" class="net_2,3,4,5,6,7,8,9"/>
  <circle cx="200" cy="97.5" r="2" style="fill:#000" class="net_2,3,4,5,6,7,8,9"/>
  <line x1="318" x2="347" y1="192" y2="192" class="net_2,3,4,5,6,7,8,9"/>
  <line x1="123" x2="145" y1="284.5" y2="284.5" class="net_2,3,4,5,6,7,8,9"/>
  <line x1="145" x2="145" y1="284.5" y2="97.5" class="net_2,3,4,5,6,7,8,9"/>
  <line x1="145" x2="234" y1="97.5" y2="97.5" class="net_2,3,4,5,6,7,8,9"/>
  <line x1="123" x2="135" y1="359.5" y2="359.5" class="net_10,11,12,13,14,15,16,17"/>
  <line x1="135" x2="135" y1="359.5" y2="449" class="net_10,11,12,13,14,15,16,17"/>
  <circle cx="135" cy="359.5" r="2" style="fill:#000" class="net_10,11,12,13,14,15,16,17"/>
  <circle cx="135" cy="449" r="2" style="fill:#000" class="net_10,11,12,13,14,15,16,17"/>
  <line x1="135" x2="164.66666666666666" y1="449" y2="449" class="net_10,11,12,13,14,15,16,17"/>
  <line x1="123" x2="226" y1="359.5" y2="359.5" class="net_10,11,12,13,14,15,16,17"/>
  <line x1="123" x2="135" y1="359.5" y2="359.5" class="net_10,11,12,13,14,15,16,17"/>
  <line x1="135" x2="135" y1="359.5" y2="299.5" class="net_10,11,12,13,14,15,16,17"/>
  <circle cx="135" cy="299.5" r="2" style="fill:#000" class="net_10,11,12,13,14,15,16,17"/>
  <line x1="135" x2="229" y1="299.5" y2="299.5" class="net_10,11,12,13,14,15,16,17"/>
  <line x1="123" x2="135" y1="359.5" y2="359.5" class="net_10,11,12,13,14,15,16,17"/>
  <line x1="135" x2="135" y1="359.5" y2="495" class="net_10,11,12,13,14,15,16,17"/>
  <line x1="135" x2="164.66666666666666" y1="495" y2="495" class="net_10,11,12,13,14,15,16,17"/>
  <line x1="123" x2="135" y1="359.5" y2="359.5" class="net_10,11,12,13,14,15,16,17"/>
  <line x1="135" x2="135" y1="359.5" y2="172" class="net_10,11,12,13,14,15,16,17"/>
  <circle cx="135" cy="172" r="2" style="fill:#000" class="net_10,11,12,13,14,15,16,17"/>
  <line x1="135" x2="228" y1="172" y2="172" class="net_10,11,12,13,14,15,16,17"/>
  <line x1="123" x2="135" y1="359.5" y2="359.5" class="net_10,11,12,13,14,15,16,17"/>
  <line x1="135" x2="135" y1="359.5" y2="53" class="net_10,11,12,13,14,15,16,17"/>
  <line x1="135" x2="347.5" y1="53" y2="53" class="net_10,11,12,13,14,15,16,17"/>
  <line x1="347.5" x2="347.5" y1="53" y2="151.5" class="net_10,11,12,13,14,15,16,17"/>
  <line x1="186.66666666666666" x2="200" y1="441.5" y2="441.5" class="net_32,33,34,35,36,37,38,39,40"/>
  <line x1="200" x2="200" y1="441.5" y2="449" class="net_32,33,34,35,36,37,38,39,40"/>
  <line x1="200" x2="230.66666666666666" y1="449" y2="449" class="net_32,33,34,35,36,37,38,39,40"/>
  <line x1="40" x2="230.66666666666666" y1="464" y2="464" class="net_21"/>
  <line x1="40" x2="70" y1="464" y2="464" class="net_21"/>
  <line x1="70" x2="70" y1="464" y2="535" class="net_21"/>
  <circle cx="70" cy="464" r="2" style="fill:#000" class="net_21"/>
  <line x1="70" x2="106" y1="535" y2="535" class="net_21"/>
  <line x1="448" x2="477" y1="142" y2="142" class="net_22,23,24,25,26,27,28,29"/>
  <line x1="477" x2="477" y1="142" y2="97" class="net_22,23,24,25,26,27,28,29"/>
  <circle cx="477" cy="97" r="2" style="fill:#000" class="net_22,23,24,25,26,27,28,29"/>
  <line x1="477" x2="502" y1="97" y2="97" class="net_22,23,24,25,26,27,28,29"/>
  <line x1="448" x2="477" y1="142" y2="142" class="net_22,23,24,25,26,27,28,29"/>
  <line x1="477" x2="477" y1="142" y2="32" class="net_22,23,24,25,26,27,28,29"/>
  <line x1="477" x2="567" y1="32" y2="32" class="net_22,23,24,25,26,27,28,29"/>
  <line x1="112" x2="160" y1="545" y2="545" class="net_21,109,110,111,112,113,114,115,116"/>
  <line x1="353" x2="388" y1="162" y2="162" class="net_10,11,12,13,14,15,16,17,117,118,2,3,4,5,6,7,8,9,3,4,5,6,7,8,9,119,2,75,76,77,78,79,80,81,82,119,67,68,69,70,71,72,73,74,119,50,51,52,53,54,55,56,57,119,83,84,85,86,87,88,89,90,91,41,42,43,44,45,46,47,48,49"/>
  <line x1="350.57142857142856" x2="398" y1="947.5" y2="947.5" class="net_92,93,94,95,96,97,98,99"/>
  <line x1="398" x2="398" y1="947.5" y2="167" class="net_92,93,94,95,96,97,98,99"/>
  <line x1="188" x2="200" y1="805" y2="805" class="net_18,19,20"/>
  <line x1="200" x2="200" y1="805" y2="595" class="net_18,19,20"/>
  <circle cx="200" cy="805" r="2" style="fill:#000" class="net_18,19,20"/>
  <line x1="200" x2="230.66666666666666" y1="595" y2="595" class="net_18,19,20"/>
  <line x1="188" x2="200" y1="805" y2="805" class="net_18,19,20"/>
  <line x1="200" x2="200" y1="805" y2="660" class="net_18,19,20"/>
  <circle cx="200" cy="660" r="2" style="fill:#000" class="net_18,19,20"/>
  <line x1="200" x2="230.66666666666666" y1="660" y2="660" class="net_18,19,20"/>
  <line x1="188" x2="200" y1="805" y2="805" class="net_18,19,20"/>
  <line x1="200" x2="200" y1="805" y2="725" class="net_18,19,20"/>
  <circle cx="200" cy="725" r="2" style="fill:#000" class="net_18,19,20"/>
  <line x1="200" x2="230.66666666666666" y1="725" y2="725" class="net_18,19,20"/>
  <line x1="188" x2="200" y1="805" y2="805" class="net_18,19,20"/>
  <line x1="200" x2="200" y1="805" y2="855" class="net_18,19,20"/>
  <circle cx="200" cy="855" r="2" style="fill:#000" class="net_18,19,20"/>
  <line x1="200" x2="230.66666666666666" y1="855" y2="855" class="net_18,19,20"/>
  <line x1="188" x2="200" y1="805" y2="805" class="net_18,19,20"/>
  <line x1="200" x2="200" y1="805" y2="920" class="net_18,19,20"/>
  <circle cx="200" cy="920" r="2" style="fill:#000" class="net_18,19,20"/>
  <line x1="200" x2="230.66666666666666" y1="920" y2="920" class="net_18,19,20"/>
  <line x1="188" x2="200" y1="805" y2="805" class="net_18,19,20"/>
  <line x1="200" x2="200" y1="805" y2="985" class="net_18,19,20"/>
  <circle cx="200" cy="985" r="2" style="fill:#000" class="net_18,19,20"/>
  <line x1="200" x2="230.66666666666666" y1="985" y2="985" class="net_18,19,20"/>
  <line x1="188" x2="200" y1="805" y2="805" class="net_18,19,20"/>
  <line x1="200" x2="200" y1="805" y2="1050" class="net_18,19,20"/>
  <circle cx="200" cy="1050" r="2" style="fill:#000" class="net_18,19,20"/>
  <line x1="200" x2="230.66666666666666" y1="1050" y2="1050" class="net_18,19,20"/>
  <line x1="188" x2="200" y1="805" y2="805" class="net_18,19,20"/>
  <line x1="200" x2="200" y1="805" y2="1115" class="net_18,19,20"/>
  <line x1="200" x2="226.5" y1="1115" y2="1115" class="net_18,19,20"/>
  <line x1="190" x2="230.66666666666666" y1="610" y2="610" class="net_123,124,125"/>
  <line x1="190" x2="230.66666666666666" y1="675" y2="675" class="net_126,127,128"/>
  <line x1="190" x2="230.66666666666666" y1="740" y2="740" class="net_129,130,131"/>
  <line x1="190" x2="230.66666666666666" y1="870" y2="870" class="net_132,133,134"/>
  <line x1="190" x2="230.66666666666666" y1="935" y2="935" class="net_135,136,137"/>
  <line x1="190" x2="230.66666666666666" y1="1000" y2="1000" class="net_138,139,140"/>
  <line x1="190" x2="230.66666666666666" y1="1065" y2="1065" class="net_141,142,143"/>
  <line x1="186.66666666666666" x2="200" y1="487.5" y2="487.5" class="net_100,101,102,103,104,105,106,107,108"/>
  <line x1="200" x2="200" y1="487.5" y2="530" class="net_100,101,102,103,104,105,106,107,108"/>
  <line x1="200" x2="230.66666666666666" y1="530" y2="530" class="net_100,101,102,103,104,105,106,107,108"/>
  <line x1="185" x2="230.66666666666666" y1="545" y2="545" class="net_58,59,60,61,62,63,64,65,66"/>
  <line x1="448" x2="567" y1="162" y2="162" class="net_30"/>
  <line x1="527" x2="567" y1="97" y2="97" class="net_31"/>
  <line x1="448" x2="477" y1="182" y2="182" class="net_29"/>
  <line x1="477" x2="477" y1="182" y2="227" class="net_29"/>
  <line x1="477" x2="567" y1="227" y2="227" class="net_29"/>
  <line x1="42" x2="106" y1="555" y2="555" class="net_109,110,111,112,113,114,115,116"/>
  <line x1="255" x2="347.5" y1="33" y2="33" class="net_117,118"/>
  <line x1="347.5" x2="347.5" y1="33" y2="171.5" class="net_117,118"/>
  <line x1="239" x2="308" y1="87.5" y2="87.5" class="net_3,4,5,6,7,8,9"/>
  <line x1="308" x2="308" y1="87.5" y2="212" class="net_3,4,5,6,7,8,9"/>
  <line x1="308" x2="347" y1="212" y2="212" class="net_3,4,5,6,7,8,9"/>
  <line x1="255" x2="347" y1="232" y2="232" class="net_119"/>
  <line x1="255" x2="278" y1="232" y2="232" class="net_119"/>
  <line x1="278" x2="278" y1="232" y2="292" class="net_119"/>
  <circle cx="278" cy="232" r="2" style="fill:#000" class="net_119"/>
  <circle cx="278" cy="292" r="2" style="fill:#000" class="net_119"/>
  <line x1="278" x2="347" y1="292" y2="292" class="net_119"/>
  <line x1="255" x2="278" y1="232" y2="232" class="net_119"/>
  <line x1="278" x2="278" y1="232" y2="332" class="net_119"/>
  <circle cx="278" cy="332" r="2" style="fill:#000" class="net_119"/>
  <line x1="278" x2="347" y1="332" y2="332" class="net_119"/>
  <line x1="255" x2="278" y1="232" y2="232" class="net_119"/>
  <line x1="278" x2="278" y1="232" y2="372" class="net_119"/>
  <line x1="278" x2="347" y1="372" y2="372" class="net_119"/>
  <line x1="239" x2="298" y1="107.5" y2="107.5" class="net_2"/>
  <line x1="298" x2="298" y1="107.5" y2="252" class="net_2"/>
  <line x1="298" x2="347" y1="252" y2="252" class="net_2"/>
  <line x1="258" x2="288" y1="164.5" y2="164.5" class="net_75,76,77,78,79,80,81,82"/>
  <line x1="288" x2="288" y1="164.5" y2="272" class="net_75,76,77,78,79,80,81,82"/>
  <line x1="288" x2="347" y1="272" y2="272" class="net_75,76,77,78,79,80,81,82"/>
  <line x1="256" x2="268" y1="292" y2="292" class="net_67,68,69,70,71,72,73,74"/>
  <line x1="268" x2="268" y1="292" y2="312" class="net_67,68,69,70,71,72,73,74"/>
  <line x1="268" x2="347" y1="312" y2="312" class="net_67,68,69,70,71,72,73,74"/>
  <line x1="256" x2="347" y1="352" y2="352" class="net_50,51,52,53,54,55,56,57"/>
  <line x1="252.66666666666666" x2="347.5" y1="537.5" y2="537.5" class="net_83,84,85,86,87,88,89,90,91"/>
  <line x1="347.5" x2="347.5" y1="537.5" y2="392.5" class="net_83,84,85,86,87,88,89,90,91"/>
  <line x1="252.66666666666666" x2="347.5" y1="456.5" y2="456.5" class="net_41,42,43,44,45,46,47,48,49"/>
  <line x1="347.5" x2="347.5" y1="456.5" y2="412.5" class="net_41,42,43,44,45,46,47,48,49"/>
  <line x1="252.66666666666666" x2="345.07142857142856" y1="602.5" y2="602.5" class="net_92"/>
  <line x1="345.07142857142856" x2="345.07142857142856" y1="602.5" y2="937" class="net_92"/>
  <line x1="252.66666666666666" x2="308" y1="667.5" y2="667.5" class="net_93"/>
  <line x1="308" x2="308" y1="667.5" y2="957.5" class="net_93"/>
  <line x1="308" x2="344.57142857142856" y1="957.5" y2="957.5" class="net_93"/>
  <line x1="252.66666666666666" x2="298" y1="732.5" y2="732.5" class="net_94"/>
  <line x1="298" x2="298" y1="732.5" y2="977.5" class="net_94"/>
  <line x1="298" x2="344.57142857142856" y1="977.5" y2="977.5" class="net_94"/>
  <line x1="252.66666666666666" x2="288" y1="862.5" y2="862.5" class="net_95"/>
  <line x1="288" x2="288" y1="862.5" y2="997.5" class="net_95"/>
  <line x1="288" x2="344.57142857142856" y1="997.5" y2="997.5" class="net_95"/>
  <line x1="252.66666666666666" x2="278" y1="927.5" y2="927.5" class="net_96"/>
  <line x1="278" x2="278" y1="927.5" y2="1017.5" class="net_96"/>
  <line x1="278" x2="344.57142857142856" y1="1017.5" y2="1017.5" class="net_96"/>
  <line x1="252.66666666666666" x2="268" y1="992.5" y2="992.5" class="net_97"/>
  <line x1="268" x2="268" y1="992.5" y2="1037.5" class="net_97"/>
  <line x1="268" x2="344.57142857142856" y1="1037.5" y2="1037.5" class="net_97"/>
  <line x1="252.66666666666666" x2="344.57142857142856" y1="1057.5" y2="1057.5" class="net_98"/>
  <line x1="251.5" x2="345.07142857142856" y1="1115" y2="1115" class="net_99"/>
  <line x1="345.07142857142856" x2="345.07142857142856" y1="1115" y2="1078" class="net_99"/>
  <line x1="408" x2="443" y1="152" y2="152" class="net_22,23,24,25,26,27,28,29,30"/>
</svg>
